<svg version="1.2" xmlns="http://www.w3.org/2000/svg" viewBox="0 0 209 51" width="209" height="51"><defs><clipPath clipPathUnits="userSpaceOnUse" id="cp1"><path d="m-591-612h1600v3931h-1600z"/></clipPath><linearGradient id="P" gradientUnits="userSpaceOnUse"/><linearGradient id="g1" x1="29.5" y1="8" x2="29.5" y2="43" href="#P"><stop stop-color="#f251fe"/><stop offset="1" stop-color="#842bc1"/></linearGradient></defs><style>.a{fill:none}.b{fill:none;stroke:#e5e5e5}.c{fill:#333}.d{fill:#080808}.e{fill:#999}.f{fill:url(#g1)}.g{fill:#fdfbfd}.h{fill:#fefefe}</style><g clip-path="url(#cp1)"><rect class="a" x="1" y="1" width="208" height="50" rx="4"></rect><rect class="b" x="1.5" y="1.5" width="207" height="49" rx="3.5"></rect><path fill-rule="evenodd" class="c" d="m114.1 32.7v-7.1c0-0.3 0.1-0.3 0.3-0.3 1.8 0 3.6-0.1 5.3 0q1.1-0.1 2.1 0.4 0.9 0.4 1.6 1.2 0.7 0.8 1 1.8 0.2 1.1 0 2.1 0 0.8-0.3 1.4-0.3 0.7-0.8 1.3-0.5 0.5-1.2 0.9-0.6 0.4-1.4 0.5-0.1 0-0.3 0.1-0.2 0-0.4 0-0.1 0-0.3 0-0.2 0-0.4 0h-2.6c-0.3 0-0.3 0.1-0.3 0.3v4.4c0 0.2 0 0.4-0.3 0.4q-0.2-0.1-0.4-0.1-0.2 0-0.4 0-0.3 0-0.5 0-0.2 0-0.4 0.1c-0.2 0-0.3-0.1-0.3-0.4zm3.9 0.4h1.4q0.5 0 0.8-0.1 0.4-0.1 0.8-0.3 0.3-0.3 0.6-0.6 0.2-0.3 0.4-0.7 0-0.2 0.1-0.3 0-0.2 0-0.3 0.1-0.2 0.1-0.4 0-0.1 0-0.3 0-0.5-0.2-1-0.2-0.5-0.5-0.9-0.3-0.4-0.8-0.6-0.5-0.2-1-0.2-0.4-0.1-0.7-0.1-0.4 0-0.8 0-0.4 0-0.7 0-0.4 0-0.8 0c-0.2 0-0.2 0.1-0.2 0.3v5.3c0 0.2 0.1 0.3 0.2 0.3q0.2 0 0.3-0.1 0.2 0 0.4 0 0.1 0 0.3 0 0.2 0 0.3 0z"/><path fill-rule="evenodd" class="c" d="m66 40c-0.3 0-0.8 0.2-1.1-0.1-0.2-0.2-0.2-0.7-0.4-1-0.3-0.9-0.6-1.7-0.9-2.6 0-0.2-0.1-0.3-0.3-0.3h-5.1c-0.2 0-0.3 0.1-0.3 0.3-0.4 1.1-0.8 2.3-1.2 3.5q0 0-0.1 0.1 0 0 0 0.1-0.1 0-0.2 0 0 0-0.1 0c-0.6 0-1.2 0-1.8 0-0.3 0-0.3-0.1-0.2-0.3 1.3-3.8 2.7-7.5 4-11.2 0.4-1 0.7-2 1.1-3q0-0.1 0-0.1 0.1-0.1 0.1-0.1 0.1-0.1 0.1-0.1 0.1 0 0.2 0h1.9q0 0 0.1 0 0 0 0.1 0.1 0 0 0.1 0.1 0 0 0 0.1l5.2 14.2c0 0.2 0 0.3-0.2 0.3q-0.1 0-0.3 0-0.1 0-0.2 0-0.1 0-0.2 0-0.2 0-0.3 0zm-5.3-12.3q-1 3.2-2.1 6.3c-0.1 0.3 0.1 0.2 0.3 0.2h3.8c0.2 0 0.3 0 0.2-0.3-0.5-1.4-0.9-2.8-1.4-4.1q-0.1-0.3-0.2-0.5-0.1-0.3-0.2-0.5-0.1-0.3-0.2-0.5-0.1-0.3-0.2-0.6z"/><path fill-rule="evenodd" class="c" d="m145.1 38.3c-1.3 2.5-5.5 2.6-7.1-0.3q-0.3-0.4-0.4-0.9-0.2-0.5-0.3-1-0.1-0.5-0.1-1-0.1-0.5 0-1 0-0.5 0.1-0.9 0.1-0.5 0.2-0.9 0.2-0.4 0.4-0.8 0.2-0.4 0.5-0.8 0.5-0.7 1.3-1.1 0.8-0.4 1.7-0.4 0.8-0.1 1.6 0.2 0.9 0.3 1.5 0.9c0.2 0.2 0.3 0.4 0.5 0.7 0.1-0.1 0.1-0.2 0.1-0.3v-5.1c0-0.3 0-0.4 0.3-0.4q0.2 0 0.4 0.1 0.2 0 0.4 0 0.2 0 0.4 0 0.2-0.1 0.4-0.1c0.3 0 0.3 0.1 0.3 0.4v14c0 0.3-0.1 0.4-0.4 0.4-0.5-0.1-1 0-1.5 0q-0.3 0-0.3-0.3 0-0.2 0-0.3 0-0.2 0.1-0.4 0-0.2 0-0.3 0-0.2-0.1-0.4zm0-3.7q0-0.1 0-0.1 0-0.1 0-0.2 0-0.1 0-0.2 0-0.1 0-0.2 0-0.1-0.1-0.2 0-0.1 0-0.2 0-0.1-0.1-0.2 0-0.1 0-0.2-0.1-0.4-0.4-0.8-0.2-0.4-0.5-0.6-0.4-0.3-0.8-0.5-0.4-0.1-0.8-0.1-0.4 0-0.8 0.1-0.4 0.1-0.7 0.3-0.4 0.2-0.6 0.5-0.3 0.3-0.4 0.7-0.2 0.5-0.4 1-0.1 0.5 0 1.1 0 0.5 0.1 1 0.1 0.6 0.4 1 0.2 0.4 0.4 0.6 0.3 0.3 0.6 0.5 0.3 0.2 0.7 0.3 0.3 0.1 0.7 0 0.3 0 0.7-0.1 0.3-0.1 0.6-0.3 0.3-0.2 0.6-0.4 0.2-0.3 0.4-0.6 0.1-0.3 0.2-0.5 0.1-0.3 0.1-0.6 0.1-0.2 0.1-0.5 0-0.3 0-0.6z"/><path fill-rule="evenodd" class="c" d="m83 31.1q0.1-0.3 0.2-0.5 0.2-0.2 0.4-0.3 0.1-0.2 0.3-0.4 0.2-0.1 0.5-0.2 0.7-0.4 1.5-0.5 0.9-0.1 1.7 0.1 0.8 0.2 1.5 0.7 0.6 0.6 1 1.3 0.5 0.8 0.7 1.7 0.2 0.8 0.2 1.7 0 0.9-0.2 1.8-0.3 0.9-0.7 1.6-0.5 0.8-1.2 1.3-0.7 0.5-1.6 0.7-0.9 0.2-1.7 0-0.9-0.2-1.6-0.7-0.2-0.1-0.3-0.3-0.1-0.1-0.2-0.2-0.2-0.1-0.3-0.3-0.1-0.1-0.2-0.3c0 0.1 0 0.2 0 0.3v4.7c0 0.2 0 0.3-0.3 0.3q-0.2 0-0.4 0-0.2 0-0.4 0-0.2 0-0.4 0-0.2 0-0.4 0c-0.3 0-0.3-0.1-0.3-0.3v-13.7c0-0.3 0-0.4 0.3-0.4 0.5 0.1 1 0 1.6 0 0.2 0 0.2 0.1 0.2 0.3 0.1 0.5 0.1 1 0.1 1.6zm5.7 3.3q0-0.2 0-0.3-0.1-0.2-0.1-0.4 0-0.2-0.1-0.4 0-0.2-0.1-0.4-0.1-0.3-0.3-0.6-0.2-0.3-0.5-0.6-0.3-0.2-0.6-0.4-0.3-0.1-0.7-0.2-0.3-0.1-0.7 0-0.4 0-0.7 0.1-0.4 0.2-0.7 0.4-0.3 0.3-0.5 0.6-0.3 0.6-0.5 1.2-0.2 0.6-0.1 1.3 0 0.6 0.1 1.3 0.2 0.6 0.6 1.1 0.3 0.5 0.9 0.8 0.5 0.3 1.2 0.3 0.6 0 1.1-0.2 0.6-0.3 1-0.8 0.2-0.3 0.3-0.6 0.2-0.4 0.2-0.7 0.1-0.4 0.2-0.7 0-0.4 0-0.8z"/><path fill-rule="evenodd" class="c" d="m71.2 38.3v5c0 0.2-0.1 0.4-0.4 0.3q-0.2 0-0.4 0-0.2 0-0.4 0-0.2 0-0.4 0-0.2 0-0.4 0c-0.2 0-0.3-0.1-0.3-0.3v-13.6c0-0.3 0.1-0.4 0.4-0.4 0.5 0.1 1 0 1.6 0 0.2 0 0.2 0.1 0.2 0.3v1.4c0.1 0 0.1-0.1 0.2-0.2q0.3-0.4 0.7-0.8 0.4-0.3 0.9-0.5 0.5-0.3 1.1-0.3 0.5-0.1 1.1 0 0.6 0.1 1.2 0.3 0.6 0.2 1.1 0.6 0.5 0.5 0.8 1 0.3 0.5 0.5 1.1 0.2 0.7 0.3 1.5 0.1 0.7 0.1 1.4-0.1 0.8-0.3 1.5-0.2 0.7-0.5 1.3-0.4 0.8-1.1 1.4-0.7 0.5-1.6 0.7-0.9 0.2-1.7 0.1-0.9-0.2-1.7-0.7 0 0-0.1-0.1-0.1 0-0.2-0.1-0.1-0.1-0.1-0.1-0.1-0.1-0.2-0.2c-0.1-0.1-0.2-0.4-0.4-0.6zm0-3.6q0 0.2 0 0.4 0 0.2 0 0.4 0.1 0.3 0.1 0.5 0.1 0.2 0.1 0.4 0.2 0.4 0.4 0.7 0.2 0.3 0.5 0.6 0.4 0.2 0.7 0.4 0.4 0.1 0.8 0.1 0.4 0.1 0.9 0 0.4-0.1 0.7-0.4 0.4-0.2 0.6-0.5 0.3-0.4 0.4-0.8 0.2-0.4 0.3-0.9 0.1-0.5 0.1-1.1 0-0.5-0.1-1-0.2-0.5-0.4-0.9-0.1-0.4-0.4-0.7-0.2-0.3-0.5-0.5-0.3-0.2-0.7-0.3-0.4-0.1-0.8 0-0.3 0-0.7 0.1-0.3 0.1-0.7 0.3-0.3 0.2-0.5 0.5-0.3 0.2-0.4 0.6-0.1 0.2-0.2 0.5-0.1 0.2-0.2 0.5 0 0.3 0 0.5 0 0.3 0 0.6z"/><path fill-rule="evenodd" class="c" d="m167.4 38.3q-0.4 0.7-1.2 1.2-0.7 0.5-1.6 0.6-0.8 0.2-1.7 0-0.8-0.3-1.5-0.8-0.6-0.5-0.8-1.2-0.3-0.6-0.2-1.4 0.1-0.7 0.4-1.3 0.4-0.6 1.1-1 0.2-0.1 0.5-0.2 0.3-0.1 0.6-0.2 0.3-0.1 0.6-0.1 0.3-0.1 0.6-0.1c0.9 0 1.9-0.1 2.8-0.1 0.3 0 0.4-0.1 0.4-0.4q0-0.1 0-0.2 0-0.1 0-0.1 0-0.1 0-0.2 0-0.1 0-0.1 0-0.4-0.2-0.6-0.1-0.3-0.3-0.6-0.2-0.2-0.5-0.3-0.3-0.1-0.6-0.2-0.3 0-0.5 0-0.3 0-0.6 0-0.2 0.1-0.5 0.1-0.2 0.1-0.4 0.3-0.1 0-0.2 0.1-0.1 0.1-0.2 0.2-0.1 0.1-0.1 0.2-0.1 0.1-0.1 0.2c-0.1 0.3-0.3 0.4-0.6 0.4q-0.2 0-0.4 0-0.1-0.1-0.3-0.1-0.2 0-0.3 0.1-0.2 0-0.4 0c-0.3 0-0.3-0.1-0.2-0.4q0-0.3 0.1-0.7 0.2-0.3 0.4-0.6 0.2-0.3 0.4-0.5 0.3-0.3 0.6-0.4 0.6-0.4 1.3-0.6 0.7-0.2 1.5-0.2 0.7 0 1.4 0.2 0.7 0.2 1.3 0.5 0.4 0.2 0.7 0.5 0.3 0.3 0.5 0.7 0.2 0.3 0.3 0.7 0.1 0.4 0.1 0.8v7.2c0 0.2-0.1 0.3-0.3 0.3h-1.5c-0.3 0-0.3-0.1-0.3-0.3q-0.1-0.6-0.1-1.4zm-2.6 0.1q0.2 0 0.4 0 0.3 0 0.5-0.1 0.2-0.1 0.4-0.2 0.2-0.1 0.4-0.3 0.2-0.2 0.4-0.5 0.2-0.2 0.3-0.5 0.1-0.3 0.2-0.6 0-0.3 0-0.7c0-0.2-0.1-0.3-0.3-0.3-0.9 0.1-1.7 0.1-2.5 0.2q-0.2 0-0.4 0-0.1 0.1-0.3 0.1-0.2 0.1-0.3 0.1-0.2 0.1-0.4 0.2-0.2 0.2-0.4 0.4-0.1 0.2-0.2 0.5 0 0.3 0 0.5 0.1 0.3 0.3 0.5 0.1 0.2 0.4 0.4 0.2 0.1 0.4 0.2 0.3 0.1 0.6 0.1 0.2 0.1 0.5 0z"/><path fill-rule="evenodd" class="c" d="m103.3 35.2h-3.5c-0.3 0-0.3 0-0.3 0.3q0 0.4 0.1 0.8 0.1 0.3 0.3 0.7 0.2 0.3 0.5 0.6 0.3 0.3 0.7 0.4 0.3 0.2 0.7 0.3 0.5 0.1 0.9 0 0.4 0 0.8-0.1 0.4-0.2 0.7-0.5 0.1 0 0.2-0.1 0.1 0 0.1-0.1 0.1-0.1 0.1-0.2 0.1-0.1 0.1-0.2c0.1-0.2 0.3-0.3 0.6-0.3 0.5 0 0.9 0.1 1.4 0 0.3 0 0.3 0.2 0.2 0.3q0 0.4-0.2 0.7-0.1 0.3-0.4 0.6-0.2 0.3-0.4 0.5-0.3 0.3-0.6 0.4-0.6 0.4-1.3 0.6-0.7 0.2-1.4 0.3-0.7 0-1.4-0.2-0.7-0.1-1.4-0.4-0.4-0.3-0.8-0.6-0.4-0.3-0.7-0.7-0.3-0.4-0.5-0.9-0.2-0.4-0.3-0.9-0.2-0.6-0.2-1.2-0.1-0.6 0-1.3 0-0.6 0.2-1.2 0.1-0.6 0.4-1.1 0.3-0.6 0.7-1.1 0.4-0.4 0.9-0.8 0.5-0.3 1.1-0.5 0.6-0.2 1.2-0.2 0.4 0 0.9 0 0.4 0 0.7 0.1 0.4 0.1 0.8 0.3 0.4 0.1 0.7 0.4 0.4 0.2 0.8 0.6 0.3 0.4 0.6 0.8 0.3 0.5 0.4 0.9 0.2 0.5 0.3 1 0 0.2 0 0.5 0 0.2 0 0.4 0.1 0.2 0.1 0.4 0 0.2-0.1 0.4c0 0.3 0 0.3-0.2 0.3zm-1.1-1.5h2.4c0.2 0 0.3-0.1 0.2-0.3q0-0.3-0.1-0.7-0.1-0.3-0.3-0.6-0.2-0.3-0.5-0.6-0.3-0.2-0.6-0.4-0.6-0.2-1.2-0.2-0.6 0.1-1.2 0.4-0.5 0.3-0.9 0.8-0.3 0.5-0.4 1.1c-0.1 0.4-0.1 0.4 0.3 0.4q1.2 0.1 2.3 0.1z"/><path fill-rule="evenodd" class="c" d="m125.5 34.7q0-0.4 0-0.7 0-0.4 0.1-0.8 0.1-0.3 0.2-0.7 0.1-0.3 0.3-0.7 0.2-0.5 0.6-1 0.3-0.4 0.8-0.7 0.5-0.4 1-0.6 0.5-0.2 1.1-0.3 0.5-0.1 1.1-0.1 0.5 0 1.1 0.1 0.5 0.1 1 0.4 0.5 0.2 1 0.5 0.3 0.3 0.6 0.6 0.3 0.4 0.5 0.7 0.2 0.4 0.4 0.8 0.1 0.4 0.2 0.9 0.1 0.5 0.2 1.1 0 0.6 0 1.2-0.1 0.6-0.3 1.1-0.1 0.6-0.4 1.1-0.2 0.5-0.6 1-0.4 0.4-0.9 0.8-0.6 0.3-1.1 0.5-0.6 0.2-1.2 0.2-0.4 0-0.7 0-0.4 0-0.7 0-0.4-0.1-0.7-0.2-0.3-0.1-0.7-0.2-0.5-0.2-1-0.6-0.4-0.3-0.8-0.8-0.4-0.4-0.6-1-0.2-0.5-0.3-1.1-0.1-0.2-0.1-0.4-0.1-0.1-0.1-0.3 0-0.2 0-0.4 0-0.2 0-0.4zm7.9-0.1q0-0.2 0-0.5 0-0.2 0-0.5-0.1-0.2-0.1-0.5-0.1-0.2-0.2-0.4-0.1-0.4-0.4-0.7-0.2-0.3-0.5-0.6-0.3-0.2-0.7-0.3-0.4-0.1-0.8-0.1-0.4 0-0.7 0-0.4 0.1-0.8 0.3-0.3 0.2-0.6 0.5-0.2 0.3-0.4 0.7-0.2 0.5-0.4 1.1-0.1 0.5-0.1 1.1 0 0.6 0.1 1.1 0.2 0.6 0.4 1.1 0.2 0.3 0.4 0.6 0.2 0.3 0.6 0.5 0.3 0.2 0.7 0.3 0.3 0.1 0.7 0.1 0.4 0 0.8-0.1 0.3-0.1 0.6-0.3 0.4-0.2 0.6-0.5 0.3-0.3 0.4-0.6 0.1-0.3 0.2-0.6 0.1-0.2 0.1-0.5 0.1-0.3 0.1-0.6 0-0.3 0-0.6z"/><path class="d" d="m189.8 36.9h0.3c0.5-0.1 0.9-0.1 1 0.5q0 0.2 0.1 0.3 0.1 0.1 0.2 0.2 0.1 0.1 0.2 0.2 0.1 0 0.3 0.1 0.3 0.1 0.6 0.2 0.4 0 0.7 0 0.4 0 0.7 0 0.4-0.1 0.7-0.2 0.2-0.1 0.3-0.2 0.2-0.1 0.3-0.3 0.1-0.2 0.1-0.3 0.1-0.2 0.1-0.4 0-0.2-0.1-0.3 0-0.2-0.2-0.3-0.1-0.2-0.2-0.3-0.2-0.1-0.3-0.1-0.3-0.1-0.6-0.2-0.4-0.1-0.7-0.2-0.3-0.1-0.6-0.1-0.3-0.1-0.7-0.2-0.2 0-0.4-0.1-0.2-0.1-0.3-0.1-0.2-0.1-0.4-0.2-0.2-0.1-0.4-0.2-0.7-0.3-1.1-0.9-0.4-0.6-0.4-1.4 0-0.7 0.3-1.4 0.3-0.6 0.9-1 0.3-0.2 0.5-0.3 0.3-0.2 0.6-0.3 0.3-0.1 0.6-0.1 0.3-0.1 0.6-0.1 0.5-0.1 1-0.1 0.5 0 1 0.2 0.5 0.1 0.9 0.3 0.5 0.2 0.9 0.5 0.2 0.2 0.4 0.4 0.2 0.3 0.3 0.5 0.2 0.3 0.3 0.6 0.1 0.3 0.1 0.6c0 0.1 0 0.2-0.2 0.2h-1.7q-0.1 0-0.1-0.1-0.1 0-0.1 0 0 0 0-0.1 0 0 0 0-0.1-0.3-0.2-0.5-0.1-0.2-0.3-0.4-0.2-0.1-0.4-0.2-0.2-0.2-0.5-0.2-0.2-0.1-0.5-0.1-0.2 0-0.5 0-0.2 0-0.5 0.1-0.2 0.1-0.4 0.2-0.2 0-0.3 0.1-0.2 0.2-0.3 0.3-0.1 0.1-0.1 0.3-0.1 0.2-0.1 0.4 0 0.1 0.1 0.3 0 0.2 0.1 0.3 0.1 0.2 0.3 0.3 0.1 0.1 0.3 0.1 0.3 0.1 0.6 0.3 0.3 0.1 0.6 0.1 0.3 0.1 0.6 0.2 0.3 0.1 0.7 0.1 0.2 0.1 0.3 0.1 0.2 0.1 0.4 0.1 0.2 0.1 0.4 0.1 0.2 0.1 0.3 0.2 0.7 0.2 1.1 0.7 0.4 0.6 0.6 1.2 0.1 0.7-0.1 1.4-0.2 0.6-0.6 1.1-0.3 0.2-0.5 0.4-0.3 0.2-0.6 0.4-0.3 0.1-0.6 0.2-0.3 0.1-0.6 0.2-0.5 0.1-1 0.1-0.6 0.1-1.1 0-0.5-0.1-1-0.2-0.5-0.1-1-0.4-0.3-0.1-0.6-0.4-0.3-0.3-0.6-0.6-0.2-0.3-0.3-0.7-0.2-0.3-0.2-0.7c-0.1-0.2 0-0.3 0.2-0.3q0.1 0 0.2 0.1 0.1 0 0.2 0 0.1 0 0.2 0 0.1 0 0.2 0z"/><path class="c" d="m172.6 36.9h0.2c0.6-0.1 1-0.1 1.1 0.6 0.1 0.4 0.5 0.6 0.9 0.8q0.3 0.1 0.6 0.1 0.3 0.1 0.6 0.1 0.3 0 0.7-0.1 0.3 0 0.6-0.1 0.1-0.1 0.3-0.2 0.1-0.1 0.2-0.2 0.2-0.1 0.2-0.3 0.1-0.1 0.1-0.3 0.1-0.2 0-0.4 0-0.2-0.1-0.4-0.1-0.1-0.3-0.3-0.1-0.1-0.3-0.1-0.3-0.1-0.7-0.2-0.3-0.1-0.6-0.2-0.3-0.1-0.6-0.2-0.4 0-0.7-0.1-0.3-0.1-0.5-0.1-0.3-0.1-0.5-0.2-0.3-0.2-0.5-0.3-0.3-0.1-0.5-0.3-0.5-0.4-0.8-1-0.2-0.6-0.2-1.2 0-0.7 0.3-1.2 0.3-0.6 0.8-1 0.3-0.2 0.5-0.3 0.3-0.2 0.6-0.3 0.3-0.1 0.6-0.2 0.3 0 0.7-0.1 0.4 0 0.9 0 0.5 0 1 0.1 0.5 0.1 0.9 0.3 0.5 0.2 0.9 0.5 0.2 0.2 0.4 0.4 0.2 0.3 0.4 0.5 0.1 0.3 0.2 0.6 0.1 0.3 0.1 0.6c0.1 0.2 0 0.3-0.2 0.3-0.5-0.1-1.1 0-1.6 0q-0.2 0-0.2-0.2-0.1-0.3-0.3-0.5-0.1-0.3-0.4-0.5-0.2-0.1-0.5-0.2-0.2-0.1-0.5-0.1-0.3 0-0.5-0.1-0.2 0-0.4 0.1-0.2 0-0.4 0.1-0.2 0-0.4 0.1-0.1 0.1-0.3 0.2-0.1 0.1-0.2 0.3-0.1 0.1-0.1 0.3-0.1 0.1-0.1 0.3 0 0.2 0.1 0.3 0 0.2 0.1 0.3 0.1 0.2 0.2 0.3 0.2 0.1 0.3 0.1 0.3 0.2 0.6 0.3 0.2 0.1 0.5 0.1 0.3 0.1 0.6 0.2 0.3 0 0.6 0.1c0.5 0.1 1.1 0.3 1.7 0.5q0.6 0.2 1.1 0.8 0.5 0.5 0.6 1.2 0.1 0.7-0.1 1.4-0.3 0.7-0.8 1.2-0.3 0.2-0.6 0.4-0.3 0.2-0.6 0.3-0.3 0.2-0.6 0.2-0.4 0.1-0.7 0.2-0.5 0-1 0-0.4 0.1-0.9 0-0.5-0.1-0.9-0.2-0.5-0.2-0.9-0.4-0.3-0.1-0.6-0.4-0.3-0.2-0.5-0.5-0.2-0.3-0.4-0.6-0.1-0.4-0.2-0.7c-0.1-0.4-0.1-0.5 0.3-0.5q0.1 0 0.2 0 0.1 0 0.2 0 0.1 0 0.2 0 0 0 0.1 0z"/><path class="c" d="m159 36.4q-0.1 0.7-0.4 1.3-0.3 0.6-0.7 1.1-0.5 0.5-1.1 0.8-0.7 0.4-1.3 0.5-0.4 0-0.7 0-0.4 0.1-0.7 0.1-0.4-0.1-0.7-0.1-0.4-0.1-0.7-0.2-0.5-0.1-0.9-0.3-0.4-0.2-0.8-0.6-0.4-0.3-0.7-0.7-0.3-0.4-0.5-0.8-0.3-0.7-0.4-1.5-0.2-0.8-0.2-1.6 0.1-0.8 0.3-1.5 0.2-0.8 0.6-1.5 0.3-0.5 0.7-0.9 0.4-0.4 0.9-0.7 0.5-0.3 1-0.5 0.6-0.1 1.2-0.1 0.4-0.1 0.9 0 0.5 0 0.9 0.1 0.5 0.1 0.9 0.3 0.4 0.2 0.8 0.5 0.3 0.3 0.6 0.5 0.2 0.3 0.4 0.7 0.2 0.3 0.4 0.7 0.1 0.3 0.1 0.7c0.1 0.2 0.1 0.3-0.2 0.3-0.5 0-1.1 0-1.6 0-0.1 0-0.3 0-0.3-0.2q-0.1-0.4-0.3-0.7-0.3-0.4-0.6-0.6-0.4-0.3-0.8-0.4-0.4-0.1-0.8 0-0.5 0-0.8 0.1-0.4 0.1-0.8 0.4-0.3 0.2-0.5 0.6-0.3 0.3-0.4 0.7-0.1 0.5-0.2 0.9-0.1 0.5-0.1 1 0 0.5 0.1 0.9 0.1 0.5 0.3 0.9 0.3 0.7 0.8 1.1 0.5 0.4 1.1 0.6 0.7 0.1 1.3 0 0.7-0.2 1.2-0.7 0.1-0.1 0.1-0.2 0.1-0.1 0.2-0.3 0.1-0.1 0.1-0.2 0.1-0.2 0.1-0.3c0.1-0.2 0.1-0.2 0.3-0.2z"/><path class="c" d="m183 34.6v-3.3c0-0.2 0-0.3-0.3-0.3q-0.1 0-0.2 0-0.2 0-0.3 0-0.1 0-0.2 0-0.2 0-0.3 0c-0.2 0-0.3 0-0.2-0.2v-1.4c0-0.1 0-0.2 0.2-0.2h1c0.3 0.1 0.4-0.1 0.3-0.4 0-0.6 0-1.3 0-1.9 0-0.2 0.1-0.3 0.3-0.3h1.7q0.3 0 0.3 0.3v2c0 0.3 0 0.3 0.2 0.3h1.5c0.2 0 0.3 0.1 0.3 0.2v1.3c0 0.3-0.1 0.3-0.3 0.3h-1.5c-0.2 0-0.2 0-0.2 0.3v5.6q0 1.4 1.3 1.3c0.7 0 0.7 0 0.7 0.6v0.9c0 0.2-0.1 0.3-0.3 0.3q-0.3 0.1-0.6 0.1-0.2 0-0.5 0-0.3 0-0.6-0.1-0.3 0-0.6-0.1-0.3 0-0.7-0.2-0.3-0.2-0.5-0.5-0.2-0.3-0.4-0.7-0.1-0.3-0.1-0.7c0-1.1 0.1-2.3 0-3.2z"/><path class="c" d="m95 32.7v7c0 0.3-0.1 0.4-0.4 0.3-0.5 0-1 0-1.5 0-0.2 0-0.3 0-0.3-0.3v-14.1c0-0.3 0.1-0.3 0.4-0.3q0.2 0 0.3 0 0.2 0 0.4 0 0.2 0 0.4 0 0.2 0 0.3 0c0.4-0.1 0.4 0.1 0.4 0.3z"/><path fill-rule="evenodd" class="e" d="m81.1 15.3h-2.3c-0.2 0-0.3 0.1-0.3 0.4q0.1 0.5 0.4 1 0.3 0.5 0.8 0.7 0.4 0.3 1 0.2 0.5 0 1-0.3 0.1 0 0.2-0.1 0.1 0 0.1-0.1 0.1-0.1 0.2-0.2 0 0 0.1-0.1 0-0.1 0-0.1 0.1-0.1 0.1-0.1 0.1-0.1 0.2-0.1 0 0 0.1 0h0.5c0.4 0 0.5 0.1 0.3 0.4q-0.1 0.4-0.4 0.6-0.2 0.3-0.4 0.5-0.3 0.3-0.6 0.4-0.4 0.1-0.7 0.2-0.5 0.1-1 0.1-0.6 0-1.1-0.2-0.4-0.2-0.8-0.6-0.4-0.3-0.7-0.7-0.3-0.6-0.4-1.1-0.1-0.6-0.1-1.1 0-0.6 0.1-1.2 0.2-0.5 0.5-1 0.3-0.4 0.6-0.7 0.4-0.3 0.9-0.5 0.4-0.2 0.9-0.2 0.5-0.1 1 0.1 0.5 0.1 0.9 0.3 0.4 0.2 0.7 0.6 0.3 0.4 0.5 0.8 0.2 0.4 0.2 0.9c0.1 0.3 0.1 0.6 0.1 0.9 0 0.3-0.1 0.4-0.4 0.4q-1.1-0.1-2.2-0.1zm-0.6-0.9h1.7c0.2 0 0.3 0 0.2-0.2q0-0.2 0-0.3-0.1-0.2-0.1-0.3-0.1-0.2-0.2-0.3-0.1-0.2-0.2-0.3-0.1-0.2-0.4-0.3-0.2-0.2-0.4-0.2-0.3-0.1-0.5-0.1-0.3 0-0.6 0.1-0.2 0.1-0.5 0.2-0.2 0.2-0.4 0.4-0.2 0.2-0.3 0.4-0.1 0.3-0.2 0.6c0 0.2 0 0.3 0.3 0.3z"/><path fill-rule="evenodd" class="e" d="m102.7 15.2q0 0.4-0.1 0.8-0.1 0.5-0.3 0.8-0.1 0.4-0.4 0.7-0.3 0.4-0.6 0.6-0.7 0.5-1.6 0.6-0.9 0.1-1.7-0.3-0.8-0.4-1.3-1.1-0.5-0.7-0.6-1.5 0-0.4 0-0.7 0-0.3 0-0.6 0-0.3 0.1-0.6 0-0.3 0.2-0.6 0.1-0.5 0.4-0.9 0.4-0.3 0.8-0.6 0.4-0.3 0.9-0.4 0.5-0.1 1 0c2 0.1 3.2 1.4 3.2 3.8zm-5.4-0.2q0 0.1 0 0.2 0 0.1 0 0.2 0 0.1 0 0.2 0 0.1 0 0.2 0.1 0.4 0.2 0.7 0.2 0.3 0.4 0.5 0.2 0.2 0.5 0.4 0.3 0.1 0.7 0.2 0.3 0 0.7 0 0.3-0.1 0.6-0.3 0.3-0.2 0.5-0.5 0.2-0.3 0.3-0.6 0.1-0.3 0.2-0.6 0-0.3 0-0.6 0-0.3 0-0.6-0.1-0.3-0.2-0.6 0-0.3-0.2-0.6-0.2-0.2-0.5-0.4-0.2-0.2-0.5-0.3-0.3-0.1-0.7-0.1-0.3 0-0.6 0.1-0.3 0.1-0.6 0.3-0.2 0.2-0.4 0.5-0.2 0.2-0.3 0.6 0 0.1-0.1 0.3 0 0.1 0 0.2 0 0.2 0 0.3 0 0.2 0 0.3z"/><path class="e" d="m105.4 12.5q0.2-0.4 0.6-0.6 0.3-0.3 0.7-0.4 0.4-0.2 0.8-0.2 0.4 0 0.8 0.1 0.4 0.1 0.8 0.3 0.3 0.2 0.6 0.5 0.2 0.3 0.4 0.7 0.1 0.4 0.1 0.8c0 1.6 0 3.1 0 4.6 0 0.2-0.1 0.2-0.3 0.3-1 0-1 0-1-1v-3.4q0-0.1 0-0.1 0-0.1 0-0.2 0-0.1 0-0.2 0-0.1 0-0.2-0.1-0.2-0.2-0.5-0.2-0.2-0.4-0.3-0.2-0.2-0.4-0.3-0.3 0-0.5 0-0.3-0.1-0.6 0-0.3 0.1-0.5 0.2-0.3 0.2-0.5 0.4-0.1 0.3-0.2 0.6-0.1 0.1-0.1 0.2 0 0.1-0.1 0.2 0 0.1 0 0.2 0 0.1 0 0.3v3.7c0 0.2-0.1 0.3-0.3 0.3-0.9 0-0.9 0-0.9-0.9v-5.9c0-0.3 0-0.3 0.3-0.3 0.8 0 0.8 0 0.8 0.8q0.1 0 0.1 0 0 0.1 0 0.1 0 0.1 0 0.1 0 0 0 0.1z"/><path class="e" d="m86.4 12.6q0.1-0.2 0.2-0.4 0.2-0.2 0.4-0.3 0.2-0.2 0.4-0.3 0.3-0.1 0.5-0.1 0.2-0.1 0.4-0.1 0.1 0 0.3 0 0.2 0 0.4 0 0.2 0 0.4 0.1 0.4 0.1 0.7 0.3 0.3 0.2 0.6 0.5 0.2 0.3 0.3 0.7 0.2 0.4 0.2 0.8c0 1.5 0 3.1 0 4.6 0 0.2-0.1 0.2-0.3 0.2-1 0.1-1 0.1-1-0.9v-3.4q0-0.1 0-0.2 0-0.1 0-0.2 0-0.1 0-0.2 0-0.1 0-0.1-0.1-0.3-0.2-0.5-0.1-0.2-0.2-0.3-0.2-0.1-0.4-0.2-0.2-0.1-0.4-0.1-0.3-0.1-0.6 0-0.3 0-0.5 0.1-0.3 0.1-0.5 0.3-0.2 0.2-0.3 0.4-0.1 0.1-0.2 0.3-0.1 0.2-0.1 0.4 0 0.1 0 0.3-0.1 0.2 0 0.4v3.6c0 0.3-0.1 0.3-0.4 0.3-0.9 0-0.9 0-0.9-0.8v-6c0-0.3 0.1-0.3 0.4-0.3 0.8 0 0.8 0 0.8 0.7z"/><path class="e" d="m66.5 16.5h0.4c0.1 0 0.2 0.1 0.3 0.2q0 0.2 0.1 0.3 0.1 0.2 0.2 0.3 0.1 0.1 0.3 0.2 0.1 0.1 0.3 0.1 0.2 0 0.4 0 0.2 0.1 0.4 0 0.2 0 0.4 0 0.2 0 0.4-0.1 0.1 0 0.2-0.1 0.1-0.1 0.2-0.2 0.1-0.2 0.2-0.3 0-0.1 0-0.3 0-0.1 0-0.3-0.1-0.1-0.2-0.2-0.1-0.1-0.2-0.2-0.1-0.1-0.2-0.1c-0.6-0.2-1.1-0.3-1.7-0.4q-0.1-0.1-0.2-0.1-0.1 0-0.3-0.1-0.1 0-0.2 0-0.1-0.1-0.2-0.1-0.4-0.2-0.7-0.6-0.3-0.4-0.3-0.9-0.1-0.5 0.2-1 0.2-0.4 0.6-0.7 0.4-0.2 0.9-0.4 0.4-0.1 0.9-0.1 0.5 0 1 0.1 0.5 0.2 0.9 0.5 0.1 0.1 0.2 0.2 0.2 0.1 0.3 0.3 0.1 0.1 0.2 0.3 0 0.2 0.1 0.4c0 0.2 0 0.3-0.3 0.2h-0.3c-0.3 0-0.6 0.1-0.7-0.4-0.1-0.2-0.3-0.3-0.5-0.4q-0.2-0.1-0.4-0.2-0.2 0-0.5 0-0.2 0-0.4 0-0.2 0.1-0.5 0.2-0.1 0-0.2 0.1-0.1 0.1-0.2 0.2 0 0.1-0.1 0.2 0 0.2 0 0.3 0 0.1 0 0.2 0.1 0.2 0.1 0.3 0.1 0.1 0.2 0.1 0.1 0.1 0.2 0.2 0.2 0 0.4 0.1 0.2 0.1 0.4 0.1 0.2 0.1 0.4 0.1 0.2 0.1 0.4 0.1 0.1 0 0.3 0.1 0.1 0 0.2 0 0.1 0.1 0.3 0.1 0.1 0.1 0.2 0.1 0.5 0.2 0.8 0.6 0.3 0.3 0.3 0.8 0.1 0.5-0.1 0.9-0.2 0.5-0.6 0.8-0.2 0.2-0.5 0.3-0.3 0.2-0.6 0.2-0.3 0.1-0.6 0.2-0.4 0-0.7-0.1-0.2 0-0.4 0-0.3-0.1-0.5-0.1-0.2-0.1-0.4-0.2-0.2-0.1-0.4-0.2-0.1-0.1-0.2-0.3-0.2-0.1-0.3-0.3-0.1-0.1-0.1-0.3-0.1-0.1-0.2-0.3c0-0.3 0-0.4 0.3-0.4z"/><path class="e" d="m55.3 13.6v-4.6c0-0.3 0.1-0.3 0.4-0.3 0.9 0 0.9 0 0.9 0.9v7.6c0 0.2 0.1 0.3 0.3 0.3h4.1c0.3 0 0.4 0.1 0.4 0.4 0 0.7 0 0.7-0.8 0.7h-4.9c-0.3 0-0.4 0-0.4-0.3z"/><path class="e" d="m73.6 14.8c0-0.7-0.1-1.3 0-2 0-0.3-0.2-0.4-0.5-0.4h-0.1c-0.6 0-0.5 0.1-0.5-0.5 0-0.5 0-0.5 0.5-0.5 0.6 0 0.6 0 0.6-0.5v-1c0-0.2 0-0.2 0.2-0.2 1-0.1 1-0.1 1 0.9 0 0.8 0 0.8 0.8 0.8 0.5 0 0.5 0 0.5 0.6 0 0.3 0 0.5-0.4 0.4-0.3 0-0.7-0.1-0.9 0.1-0.2 0.1-0.1 0.6-0.1 0.9v3.2c0 0.7 0.3 1 1.1 1 0.3-0.1 0.3 0 0.3 0.3 0 0.7 0 0.7-0.6 0.7-1.4 0-2-0.5-2-1.9q0.1-1 0.1-1.9z"/><path class="e" d="m63 15v-3.3c0-0.3 0.1-0.3 0.3-0.3 0.9 0 0.9 0 0.9 0.9v5.9c0 0.3-0.1 0.4-0.4 0.4-0.8 0-0.8 0-0.8-0.8z"/><path class="e" d="m63.6 10.2q-0.2 0-0.3 0-0.1-0.1-0.2-0.2-0.1-0.1-0.2-0.2-0.1-0.2-0.1-0.3 0-0.2 0.1-0.3 0-0.1 0.2-0.2 0.1-0.1 0.2-0.2 0.1-0.1 0.3-0.1 0.1 0 0.3 0.1 0.1 0 0.2 0.1 0.1 0.1 0.2 0.3 0 0.1 0 0.3 0 0.1 0 0.2-0.1 0.2-0.2 0.3-0.1 0.1-0.2 0.2-0.2 0-0.3 0z"/><rect class="f" x="12" y="8" width="35" height="35" rx="8"></rect><path class="g" d="m19.2 31.1q-0.2-0.4-0.5-0.8-0.2-0.4-0.4-0.9-0.3-0.4-0.4-0.9-0.2-0.4-0.3-0.9-0.2-0.5-0.3-1.1-0.1-0.5-0.2-1 0-0.6 0-1.1-0.1-0.6 0-1.1c0.1-0.6 0.1-1.3 0.3-1.9q0.2-0.9 0.5-1.7 0.4-0.9 0.9-1.7 0.4-0.8 1-1.5 0.6-0.8 1.3-1.4 0.5-0.4 1.1-0.8 0.5-0.4 1.1-0.8 0.6-0.3 1.3-0.5 0.6-0.3 1.3-0.5 1.4-0.4 2.9-0.4 1.4-0.1 2.9 0.2 1.4 0.3 2.7 1 1.4 0.6 2.5 1.5c0 0.1 0.1 0.1 0.1 0.2q0.7 0.5 1.2 1.1 0.5 0.6 1 1.2 0.4 0.7 0.8 1.4 0.3 0.7 0.6 1.5 0.1 0.3 0.2 0.6 0.1 0.3 0.2 0.6 0.1 0.4 0.1 0.7 0.1 0.3 0.1 0.7 0.1 0.6 0.1 1.3 0 0.9-0.1 1.8-0.1 0.9-0.4 1.7-0.2 0.8-0.6 1.6-0.4 0.8-0.9 1.6 0 0 0 0 0 0 0 0.1 0 0-0.1 0 0 0 0 0.1-0.4 0.5-0.8 1-0.4 0.5-0.9 0.9-0.4 0.4-0.9 0.8-0.5 0.4-1.1 0.7-0.2 0.2-0.5 0.4-0.3 0.1-0.5 0.2-0.3 0.2-0.6 0.3-0.3 0.1-0.6 0.2c-0.3 0.1-0.4 0-0.3-0.3q0-0.1 0-0.2 0 0 0.1-0.1 0-0.1 0-0.2 0-0.1 0-0.2 0-0.1 0-0.3 0.1-0.1 0.2-0.2 0.1-0.2 0.2-0.3 0.1 0 0.2-0.1 0.5-0.2 1-0.5 0.4-0.2 0.8-0.5 0.4-0.3 0.8-0.7 0.4-0.4 0.7-0.8l0.3-0.2q0.8-0.9 1.3-1.9 0.5-1.1 0.8-2.2 0.3-1.1 0.4-2.3 0-1.2-0.2-2.3c-0.1-0.2-0.1-0.4-0.1-0.6q-0.5-1.9-1.6-3.5-1.1-1.6-2.7-2.7-1.6-1.1-3.5-1.5-1.9-0.5-3.8-0.2-1 0.1-1.9 0.4-0.9 0.3-1.8 0.8-0.8 0.4-1.6 1-0.7 0.7-1.4 1.4-0.3 0.4-0.5 0.7-0.3 0.4-0.5 0.8-0.3 0.4-0.5 0.8-0.2 0.4-0.3 0.9-0.3 0.6-0.4 1.2-0.2 0.6-0.2 1.2-0.1 0.7-0.1 1.3 0 0.6 0.1 1.3 0 0.1 0 0.3 0.1 0.1 0.1 0.3 0 0.1 0 0.3 0.1 0.1 0.1 0.3 0.2 0.6 0.4 1.2 0.2 0.6 0.5 1.2 0.3 0.6 0.7 1.1 0.4 0.5 0.9 1 0.3 0.4 0.7 0.8 0.4 0.3 0.8 0.6 0.4 0.3 0.9 0.6 0.5 0.3 0.9 0.5 0.1 0 0.2 0.1 0.1 0 0.2 0.1 0 0.1 0.1 0.2 0 0.1 0 0.2 0 0.1 0 0.2 0 0.1 0 0.2 0.1 0.2 0.1 0.3 0 0.1 0 0.2c0 0.3 0 0.4-0.4 0.3q-0.8-0.3-1.6-0.8-0.8-0.4-1.5-1-0.7-0.5-1.4-1.1-0.6-0.7-1.1-1.4c-0.1 0-0.1-0.1-0.2-0.1z"/><path class="h" d="m27.3 37.8q-0.1-0.4-0.2-0.7-0.1-0.4-0.2-0.8-0.1-0.4-0.1-0.7-0.1-0.4-0.1-0.8-0.3-1.8-0.5-3.7c0-0.5 0-1.1 0-1.7q0-0.3 0.1-0.6 0-0.3 0.2-0.6 0.1-0.2 0.4-0.4 0.2-0.2 0.5-0.3 0.4-0.2 0.7-0.3 0.4-0.1 0.9-0.1 0.4-0.1 0.8 0 0.4 0.1 0.8 0.2 0.1 0 0.3 0.1 0.2 0.1 0.4 0.2 0.1 0.1 0.3 0.2 0.1 0.1 0.2 0.3 0.1 0.1 0.2 0.3 0.1 0.2 0.1 0.4 0.1 0.2 0.1 0.4 0 0.2 0 0.4c0.1 0.4 0 0.9 0 1.4q-0.1 0.8-0.1 1.5-0.1 0.8-0.2 1.5-0.1 0.8-0.3 1.5-0.1 0.8-0.2 1.5-0.1 0.1-0.1 0.2 0 0.1 0 0.2 0 0-0.1 0.1 0 0.1 0 0.2c-0.7 1.2-3.1 1.4-3.9 0.1z"/><path class="g" d="m21.2 25.5q-0.1-0.3-0.1-0.6 0-0.3 0-0.5 0-0.3 0-0.6 0-0.3 0-0.6 0.1-0.3 0.1-0.7 0.1-0.3 0.2-0.7 0.1-0.3 0.3-0.7 0.1-0.3 0.2-0.6 0.2-0.4 0.5-0.8 0.2-0.3 0.5-0.7 0.3-0.3 0.6-0.6 0.3-0.3 0.7-0.6 1.1-0.9 2.4-1.3 1.4-0.5 2.8-0.4 1.5 0 2.8 0.5 1.3 0.6 2.4 1.5 0.5 0.4 0.9 0.9 0.4 0.5 0.7 1.1 0.3 0.6 0.6 1.2 0.2 0.6 0.3 1.2 0 0 0 0 0 0 0 0 0 0 0.1 0.1 0 0 0 0 0.1 0.6 0.1 1.2 0 0.6 0 1.2-0.1 0.6-0.3 1.2-0.1 0.6-0.4 1.2-0.2 0.5-0.5 1-0.3 0.4-0.6 0.8-0.3 0.5-0.7 0.9-0.4 0.3-0.9 0.7c-0.1 0-0.1 0.2-0.3 0.1-0.1-0.1-0.1-0.2-0.1-0.4v-0.3c0-1.1 0-1.1 0.8-2q0.3-0.3 0.5-0.6 0.2-0.3 0.4-0.7 0.1-0.4 0.2-0.7 0.2-0.4 0.2-0.8 0.1-0.6 0.1-1.1 0.1-0.6 0-1.2-0.1-0.5-0.3-1.1-0.2-0.5-0.5-1-0.1-0.2-0.2-0.4-0.2-0.2-0.3-0.4-0.1-0.2-0.3-0.3-0.2-0.2-0.3-0.4-0.6-0.5-1.3-0.9-0.6-0.4-1.4-0.7-0.7-0.2-1.5-0.2-0.8-0.1-1.5 0.1-0.8 0.1-1.4 0.3-0.7 0.3-1.3 0.7-0.6 0.5-1.1 1-0.5 0.6-0.8 1.2-0.3 0.5-0.5 1.1-0.2 0.5-0.3 1.1-0.1 0.5-0.1 1.1 0 0.6 0.2 1.1 0 0.5 0.2 1 0.1 0.4 0.4 0.9 0.2 0.4 0.5 0.8 0.3 0.4 0.6 0.7 0.1 0.1 0.2 0.2 0.1 0.1 0.1 0.2 0 0.1 0.1 0.2 0 0.1-0.1 0.3 0 0.1 0 0.2 0 0.1 0 0.2 0 0.2 0.1 0.3 0 0.1 0 0.2c0 0.1 0 0.2-0.1 0.3-0.1 0.1-0.2 0-0.3-0.1q-0.5-0.3-0.9-0.7-0.5-0.4-0.8-0.9-0.4-0.5-0.7-1-0.3-0.5-0.5-1.1 0-0.2-0.1-0.4-0.1-0.2-0.1-0.4-0.1-0.2-0.1-0.4-0.1-0.2-0.1-0.4z"/><path class="h" d="m31.1 25.2q-0.2 0.2-0.4 0.4-0.2 0.1-0.5 0.2-0.3 0.1-0.5 0.2-0.3 0-0.6 0-0.2 0-0.5 0-0.2-0.1-0.4-0.2-0.3 0-0.5-0.2-0.2-0.1-0.4-0.3-0.4-0.3-0.7-0.9-0.2-0.5-0.2-1.1-0.1-0.6 0.1-1.1 0.3-0.6 0.7-1 0-0.1 0.2-0.1 0.1-0.1 0.2-0.2 0.1-0.1 0.2-0.1 0.1-0.1 0.2-0.2 0.4-0.1 0.8-0.2 0.4-0.1 0.9 0 0.4 0.1 0.8 0.2 0.4 0.2 0.7 0.5 0.1 0.1 0.2 0.3 0 0.1 0.1 0.2 0.1 0.1 0.2 0.2 0.1 0.2 0.1 0.3 0.2 0.4 0.2 0.8 0 0.4 0 0.9-0.1 0.4-0.3 0.8-0.3 0.3-0.6 0.6z"/></g></svg>