<svg version="1.2" xmlns="http://www.w3.org/2000/svg" viewBox="0 0 127 44" width="127" height="44"><defs><clipPath clipPathUnits="userSpaceOnUse" id="cp1"><path d="m-1258-39h1600v3931h-1600z"/></clipPath></defs><style>tspan{white-space:pre}.a{fill:none;stroke:#ff5300}.b{font-size: 14px;fill: #ff5300;font-weight: 600;font-family: "JosefinSans-SemiBold", "Josefin Sans"}.c{fill:#ff5300}</style><g clip-path="url(#cp1)"><rect class="a" x="1.5" y="1.5" width="125" height="42" rx="3"></rect><text style="transform:matrix(1,0,0,1,49.987,26)" ><tspan x="0" y="0" class="b">Donate
</tspan></text><path class="c" d="m43 16q0.2 0.3 0.3 0.7 0.1 0.5 0.1 0.9 0 0.4-0.1 0.8c0 0-0.1 0.2-0.1 0.3-0.7 3.6-3.1 4.9-6.3 4.9h-1.5q-0.2 0-0.3 0-0.1 0.1-0.2 0.2-0.1 0-0.2 0.2-0.1 0.1-0.1 0.2v-0.1l-0.8 5.2h-3.3q-0.1 0-0.2 0-0.1-0.1-0.2-0.1-0.1-0.1-0.1-0.2 0-0.1 0-0.2l2.3-14.2q0-0.1 0-0.2 0.1-0.1 0.2-0.2 0.1-0.1 0.2-0.2 0.2 0 0.3 0h5.4c1.9 0 3.3 0.4 4.1 1.3q0.3 0.3 0.5 0.7z"/><path class="c" d="m44.5 19.8q0.1 0.4 0.2 0.8 0.1 0.4 0 0.8 0 0.4-0.1 0.8c-0.6 3.1-2.8 4.2-5.5 4.2h-0.4q-0.1 0-0.2 0.1-0.1 0-0.2 0.1-0.1 0.1-0.2 0.2 0 0.1-0.1 0.2v0.2l-0.5 3.3-0.1 0.2q0 0.1 0 0.2-0.1 0.1-0.2 0.2-0.1 0.1-0.2 0.1-0.1 0-0.2 0h-2.3l1-6.7h1.5c3.9 0 6.3-1.9 7.1-5.4q0.2 0.3 0.4 0.7z"/></g></svg>