<svg version="1.2" xmlns="http://www.w3.org/2000/svg" viewBox="0 0 184 39" width="184" height="39"><defs><clipPath clipPathUnits="userSpaceOnUse" id="cp1"><path d="m-216-43h1600v3931h-1600z"/></clipPath></defs><style>tspan{white-space:pre}.a{font-size: 36px;fill: #222222;font-weight: 700;font-family: "JosefinSans-Bold", "Josefin Sans"}.b{fill:#ff5300}</style><g clip-path="url(#cp1)"><text style="transform:matrix(1,0,0,1,34.975,29)" ><tspan x="0" y="0" class="a">GOCAST
</tspan></text><path fill-rule="evenodd" class="b" d="m15.4 0q0.9 0 1.8 0.2 0.9 0.1 1.8 0.5 0.8 0.3 1.6 0.9 0.7 0.5 1.3 1.1 0.7 0.6 1.2 1.4 0.5 0.8 0.8 1.6 0.4 0.8 0.6 1.7 0.1 0.9 0.1 1.8v3.8h3.3v-2.8h3v6.9c0 1.9-0.3 3.8-1 5.6-0.7 1.8-1.7 3.4-3 4.8-1.3 1.4-2.8 2.6-4.5 3.4-1.7 0.9-3.5 1.4-5.4 1.6v2.7h2.5v3.1h-8v-3.1h2.5v-2.7c-1.9-0.2-3.8-0.7-5.5-1.6-1.7-0.8-3.2-2-4.5-3.4-1.3-1.4-2.3-3-3-4.8-0.6-1.8-1-3.7-1-5.6v-6.9h3.1v2.8h3.2v-3.8q0-0.9 0.2-1.8 0.1-0.9 0.5-1.7 0.3-0.9 0.8-1.6 0.6-0.8 1.2-1.4 0.6-0.6 1.4-1.2 0.7-0.5 1.5-0.8 0.9-0.4 1.8-0.5 0.8-0.2 1.7-0.2zm9.2 16.1v1c0 2.5-0.9 4.8-2.7 6.5-1.7 1.8-4 2.7-6.5 2.7-2.4 0-4.7-0.9-6.5-2.7-1.7-1.7-2.7-4-2.7-6.5v-1h-3.2v1q0 1.2 0.2 2.4 0.3 1.2 0.7 2.4 0.5 1.1 1.2 2.1 0.7 1 1.5 1.9 0.9 0.8 1.9 1.5 1 0.7 2.2 1.2 1.1 0.4 2.3 0.7 1.2 0.2 2.4 0.2 1.2 0 2.4-0.2 1.2-0.3 2.3-0.7 1.2-0.5 2.2-1.2 1-0.7 1.8-1.5 0.9-0.9 1.6-1.9 0.6-1 1.1-2.1 0.5-1.2 0.7-2.4 0.3-1.2 0.3-2.4v-1zm-15.4-3.1h12.3v-3.8q0-0.6-0.1-1.2-0.2-0.6-0.4-1.1-0.2-0.6-0.5-1.1-0.4-0.5-0.8-0.9-0.4-0.5-0.9-0.8-0.5-0.3-1.1-0.6-0.5-0.2-1.1-0.3-0.6-0.1-1.2-0.1-0.6 0-1.2 0.1-0.6 0.1-1.2 0.3-0.5 0.3-1 0.6-0.6 0.3-1 0.8-0.4 0.4-0.8 0.9-0.3 0.5-0.5 1-0.2 0.6-0.4 1.2-0.1 0.6-0.1 1.2z"/></g></svg>