<svg version="1.2" xmlns="http://www.w3.org/2000/svg" viewBox="0 0 209 51" width="209" height="51"><defs><clipPath clipPathUnits="userSpaceOnUse" id="cp1"><path d="m-363-611h1600v3931h-1600z"/></clipPath></defs><style>.a{fill:none}.b{fill:none;stroke:#e5e5e5}.c{fill:#333}.d{fill:#f9ba1b}.e{fill:#37a853}.f{fill:#ea4636}.g{fill:#999}.h{fill:#3769b3}.i{fill:#577fc0}</style><g clip-path="url(#cp1)"><rect class="a" x="1" y="1" width="208" height="50" rx="4"></rect><rect class="b" x="1.5" y="1.5" width="207" height="49" rx="3.5"></rect><path class="c" d="m66.8 30.6c1 0 1.9 0 2.9 0 0.7-0.1 0.8 0.2 0.8 0.8q0.2 1.5-0.2 2.9-0.5 1.3-1.4 2.4-1 1.1-2.3 1.8-1.3 0.6-2.8 0.6-1.6 0.1-3.1-0.4-1.4-0.4-2.6-1.4-1.2-1.1-1.9-2.4-0.8-1.4-0.9-3-0.1-1.1 0.2-2.3 0.2-1.1 0.8-2.1 0.5-1 1.4-1.8 0.8-0.8 1.8-1.3 1-0.5 2.1-0.8 1.2-0.2 2.3-0.1 1.1 0.1 2.2 0.5 1.1 0.5 1.9 1.2c0.5 0.3 0.6 0.5 0.1 0.9q-0.1 0.1-0.2 0.1 0 0.1-0.1 0.2-0.1 0.1-0.2 0.1 0 0.1-0.1 0.2c-0.3 0.4-0.5 0.3-0.9 0q-0.7-0.5-1.5-0.8-0.9-0.3-1.8-0.3-0.8 0-1.7 0.2-0.8 0.3-1.5 0.8-0.8 0.5-1.4 1.3-0.5 0.7-0.8 1.6-0.3 0.9-0.3 1.9 0 0.9 0.3 1.8 0.3 0.9 0.8 1.6 0.6 0.7 1.3 1.2 0.8 0.5 1.6 0.7 0.9 0.3 1.8 0.3 0.8 0 1.5-0.2 0.8-0.2 1.4-0.7 0.7-0.4 1.1-1 0.5-0.7 0.7-1.4c0.3-0.7 0.2-1.1-0.6-1-1.2 0.1-2.3 0-3.5 0-0.6 0-0.8-0.1-0.8-0.7 0-1.4 0-1.4 1.4-1.4q1.1 0 2.2 0z"/><path fill-rule="evenodd" class="c" d="m100.8 38.1c-2.4 1.5-4.6 1.2-6.2-0.8q-0.6-0.7-1-1.5-0.3-0.9-0.3-1.9 0.1-0.9 0.4-1.7 0.3-0.9 1-1.6c1.6-1.8 3.9-2.1 6.1-0.6 0.2-1.2 1.2-0.6 1.8-0.7 0.7 0 0.4 0.6 0.4 0.9 0 3 0.1 5.9 0 8.8q0 0.7-0.2 1.4-0.2 0.8-0.7 1.4-0.4 0.6-1 1-0.6 0.4-1.3 0.6-0.8 0.3-1.6 0.2-0.8 0-1.6-0.3-0.8-0.2-1.4-0.8-0.6-0.5-1-1.2c-0.2-0.2-0.6-0.5-0.2-0.7 0.6-0.2 1.2-1 1.9-0.4 1.2 1.3 2.2 1.7 3.5 1.3 1.1-0.5 1.5-1.5 1.4-3.4zm0.3-4q0-0.6-0.2-1.2-0.2-0.5-0.5-1-0.4-0.4-1-0.6-0.5-0.3-1.1-0.3-0.5 0-1.1 0.3-0.5 0.2-0.9 0.7-0.4 0.4-0.6 0.9-0.2 0.6-0.2 1.1 0 0.6 0.2 1.2 0.2 0.5 0.6 0.9 0.4 0.5 0.9 0.7 0.6 0.3 1.1 0.3 0.6 0 1.1-0.3 0.6-0.2 1-0.6 0.3-0.5 0.5-1 0.2-0.6 0.2-1.1z"/><path class="d" d="m25 24.2v-5.9q0-0.4 0.1-0.9 0.2-0.4 0.5-0.7 0.3-0.3 0.7-0.5 0.4-0.2 0.9-0.2 0.4 0 0.8 0.2 0.4 0.2 0.7 0.5 0.3 0.3 0.4 0.7 0.2 0.5 0.1 0.9v12q0.1 0.4-0.1 0.8-0.1 0.4-0.4 0.8-0.3 0.3-0.7 0.5-0.4 0.1-0.8 0.1-0.5 0-0.9-0.1-0.4-0.2-0.7-0.6-0.3-0.3-0.5-0.7-0.1-0.4-0.1-0.9z"/><path fill-rule="evenodd" class="c" d="m149.3 30.7c0-1.7 0-3.3-0.1-4.8 0-0.8 0.4-0.7 0.9-0.7 0.5 0 0.9-0.1 0.9 0.7 0 4 0 8.1 0 12.2 0 0.6-0.1 0.8-0.8 0.8-0.5 0-1.1 0-0.9-0.9q0 0 0-0.1 0 0 0-0.1 0 0 0-0.1 0 0 0-0.1-0.4 0.5-0.8 0.8-0.5 0.3-1 0.5-0.5 0.2-1.1 0.2-0.6 0.1-1.1-0.1-0.4 0-0.7-0.2-0.4-0.1-0.7-0.3-0.4-0.2-0.6-0.5-0.3-0.2-0.5-0.5-0.7-0.8-1-1.8-0.2-0.9-0.2-1.9 0.1-1 0.5-1.9 0.4-0.9 1.2-1.6c1.7-1.6 4-1.5 6 0.4zm0 3.5q0-0.7-0.1-1.2-0.2-0.6-0.6-1.1-0.4-0.5-1-0.8-0.5-0.2-1.1-0.3-0.7 0-1.3 0.3-0.6 0.2-1 0.7-0.5 0.4-0.7 1-0.2 0.6-0.2 1.3 0 0.6 0.1 1.2 0.2 0.6 0.6 1.1 0.4 0.5 1 0.8 0.6 0.3 1.2 0.4c1.8 0 3.1-1.4 3.1-3.4z"/><path fill-rule="evenodd" class="c" d="m87.4 39.2q-1.1 0-2-0.3-0.9-0.4-1.6-1.1-0.7-0.7-1.1-1.7-0.4-0.9-0.4-1.9 0-1 0.4-1.9 0.3-1 1.1-1.7 0.7-0.7 1.6-1.1 0.9-0.3 1.9-0.3 1-0.1 2 0.3 0.9 0.4 1.6 1.1 0.7 0.7 1.1 1.6 0.4 1 0.4 2 0 1-0.4 1.9-0.4 1-1.1 1.7-0.7 0.7-1.6 1.1-0.9 0.3-1.9 0.3zm2.8-5q0-0.6-0.2-1.2-0.2-0.6-0.6-1-0.4-0.4-1-0.6-0.5-0.3-1.1-0.3-0.6 0.1-1.1 0.3-0.6 0.2-0.9 0.7-0.4 0.4-0.6 0.9-0.2 0.6-0.2 1.2 0 0.5 0.2 1.1 0.2 0.6 0.6 1 0.4 0.4 0.9 0.7 0.6 0.2 1.2 0.3 0.5-0.1 1.1-0.3 0.5-0.3 0.9-0.7 0.4-0.4 0.6-1 0.2-0.6 0.2-1.1z"/><path fill-rule="evenodd" class="c" d="m117 37q-0.5 0.7-1.1 1.2-0.7 0.5-1.5 0.8-0.7 0.2-1.6 0.2-0.8 0.1-1.6-0.2-0.7-0.3-1.4-0.8-0.6-0.4-1.1-1.1-0.4-0.7-0.7-1.5-0.2-0.7-0.2-1.5 0-0.8 0.2-1.6 0.3-0.8 0.8-1.4 0.4-0.6 1.1-1.1 0.6-0.5 1.4-0.7 0.9-0.2 1.8-0.1 0.9 0.1 1.6 0.5 0.8 0.5 1.4 1.2 0.6 0.6 0.8 1.5c0.2 0.6-0.2 0.6-0.5 0.8-1.8 0.7-3.6 1.5-5.4 2.2-0.6 0.2-0.6 0.5-0.2 0.9q0.3 0.4 0.8 0.7 0.5 0.2 1 0.3 0.5 0 1-0.2 0.5-0.1 0.9-0.5c0.8-0.8 1.3-0.5 2 0 0.2 0.2 0.3 0.3 0.5 0.4zm-7-3c1.4-0.6 2.7-1.1 3.9-1.5 0.8-0.4 0.5-0.7 0.1-1q-0.3-0.2-0.6-0.3-0.3-0.1-0.6-0.1-0.3 0-0.7 0-0.3 0.1-0.6 0.3-0.3 0.2-0.6 0.4-0.3 0.3-0.5 0.7-0.2 0.3-0.3 0.7-0.1 0.4-0.1 0.8z"/><path fill-rule="evenodd" class="c" d="m81.3 34.2q0 1-0.4 2-0.3 0.9-1.1 1.6-0.7 0.7-1.6 1.1-0.9 0.4-1.9 0.3-1.1 0-2-0.4-0.9-0.3-1.6-1.1-0.7-0.7-1.1-1.6-0.4-0.9-0.3-1.9-0.1-1.1 0.3-2 0.4-0.9 1.1-1.6 0.7-0.7 1.7-1.1 0.9-0.4 1.9-0.3 1 0 2 0.3 0.9 0.4 1.6 1.1 0.7 0.8 1.1 1.7 0.3 0.9 0.3 1.9zm-7.9 0q0 0.6 0.2 1.2 0.2 0.5 0.7 1 0.4 0.4 0.9 0.6 0.6 0.3 1.1 0.3 0.6-0.1 1.2-0.3 0.5-0.3 0.9-0.7 0.4-0.4 0.6-1 0.2-0.5 0.2-1.1 0-0.6-0.2-1.1-0.2-0.6-0.6-1-0.4-0.5-1-0.7-0.5-0.2-1.1-0.3-0.6 0.1-1.2 0.3-0.5 0.2-0.9 0.7-0.4 0.4-0.6 1-0.2 0.5-0.2 1.1z"/><path fill-rule="evenodd" class="c" d="m122 32c0-2 0.1-4 0-6 0-0.6 0.1-0.9 0.8-0.8 1.4 0 2.7 0 4.1 0q0.8 0 1.6 0.3 0.7 0.3 1.3 0.9 0.5 0.5 0.9 1.3 0.3 0.7 0.3 1.5 0 0.8-0.3 1.5-0.4 0.8-0.9 1.4-0.6 0.5-1.3 0.8-0.8 0.4-1.6 0.4-0.3 0-0.6 0-0.2 0-0.5 0-0.3 0-0.6 0-0.2 0-0.5 0c-0.8-0.1-1 0.2-0.9 0.9 0 1.3-0.1 2.7 0 4 0 0.8-0.4 0.7-0.9 0.7-0.5 0-0.9 0.1-0.9-0.7 0.1-2.1 0-4.2 0-6.2zm1.8-2.8c0 0.6 0 1.2 0 1.9-0.1 0.4 0.1 0.6 0.6 0.5 0.9 0 1.8 0.1 2.7 0q0.4 0 0.8-0.2 0.4-0.2 0.7-0.6 0.3-0.3 0.5-0.7 0.1-0.4 0.1-0.9c0-1.5-1.1-2.3-3-2.3-2.4-0.1-2.4-0.1-2.4 2.3z"/><path fill-rule="evenodd" class="c" d="m168.5 37.6q-0.3 0.4-0.6 0.7-0.4 0.3-0.9 0.5-0.4 0.2-0.9 0.3-0.5 0.1-1 0-0.6 0-1.1-0.2-0.6-0.2-1-0.6-0.5-0.4-0.7-0.9-0.3-0.5-0.4-1.1 0-0.6 0.2-1.2 0.2-0.6 0.6-1.1 0.4-0.4 1-0.7 0.5-0.3 1.1-0.4 0.5-0.1 0.9-0.1 0.5 0 1 0 0.4 0.1 0.9 0.2 0.4 0.1 0.9 0.3 0-0.4 0-0.7-0.1-0.4-0.2-0.7-0.2-0.3-0.5-0.5-0.2-0.2-0.6-0.3-0.3-0.2-0.8-0.3-0.4 0-0.8 0.1-0.4 0.1-0.8 0.3-0.3 0.2-0.6 0.5c-0.3 0.3-1.6 0.2-1.8-0.2-0.1-0.2 0.1-0.4 0.2-0.5q0.4-0.6 0.9-0.9 0.5-0.4 1.2-0.7 0.6-0.2 1.3-0.2 0.6 0 1.3 0.2 0.6 0.1 1.1 0.4 0.6 0.3 1 0.8 0.4 0.5 0.6 1.1 0.2 0.5 0.2 1.2c0.1 1.7 0 3.5 0.1 5.2 0 0.6-0.1 0.9-0.7 0.8-0.5-0.1-1.1 0.1-1-0.7q0-0.1 0-0.2 0 0 0-0.1 0-0.1-0.1-0.2 0 0 0-0.1zm-2.8-0.1q0.5 0 0.9-0.1 0.4-0.2 0.8-0.4 0.3-0.3 0.6-0.6 0.3-0.4 0.4-0.8c0.2-0.6 0.1-1-0.5-1.2q-0.3-0.1-0.6-0.1-0.4-0.1-0.7-0.1-0.3 0-0.7 0-0.3 0.1-0.6 0.1-0.4 0.1-0.7 0.3-0.2 0.2-0.5 0.4-0.2 0.3-0.3 0.6-0.1 0.3 0 0.7 0.1 0.3 0.3 0.5 0.1 0.3 0.4 0.5 0.3 0.1 0.6 0.2 0.3 0.1 0.6 0z"/><path class="e" d="m36.7 28.6c0 1.2 0.1 2.4 0 3.5q0.1 0.5-0.1 0.9-0.1 0.4-0.4 0.7-0.3 0.4-0.7 0.5-0.4 0.2-0.8 0.2-0.5 0-0.9-0.1-0.4-0.2-0.7-0.5-0.3-0.4-0.5-0.8-0.1-0.4-0.1-0.9 0-3.5 0-7 0-0.5 0.1-0.9 0.2-0.4 0.5-0.7 0.2-0.4 0.6-0.6 0.4-0.1 0.9-0.1 0.4-0.1 0.8 0.1 0.5 0.2 0.8 0.5 0.3 0.4 0.4 0.8 0.2 0.4 0.1 0.9c0.1 1.1 0 2.3 0 3.5z"/><path class="f" d="m17.5 20c0-1.2 0-2.4 0-3.6q0-0.4 0.1-0.9 0.2-0.4 0.5-0.7 0.3-0.3 0.7-0.5 0.4-0.2 0.9-0.2 0.4 0 0.8 0.2 0.4 0.2 0.7 0.5 0.3 0.4 0.4 0.8 0.2 0.4 0.1 0.8 0.1 3.6 0 7.1 0.1 0.5-0.1 0.9-0.1 0.4-0.4 0.7-0.3 0.4-0.7 0.5-0.5 0.2-0.9 0.2-0.5 0-0.8-0.2-0.4-0.2-0.7-0.5-0.3-0.3-0.5-0.7-0.1-0.5-0.1-0.9z"/><path fill-rule="evenodd" class="c" d="m135.9 29.2q1 0 1.9 0.4 0.9 0.4 1.6 1.1 0.7 0.7 1 1.6 0.4 0.9 0.3 1.9 0 1-0.3 1.9-0.4 0.9-1 1.6-0.7 0.7-1.6 1.1-1 0.4-1.9 0.3-1 0-1.9-0.3-0.9-0.4-1.6-1.1-0.7-0.7-1-1.6-0.3-0.9-0.3-1.9-0.1-1 0.3-1.9 0.3-0.9 1-1.6 0.7-0.7 1.6-1.1 0.9-0.4 1.9-0.4zm3 5q0.1-0.7-0.1-1.3-0.2-0.6-0.7-1.1-0.4-0.4-1-0.7-0.6-0.3-1.2-0.3-0.6 0-1.2 0.3-0.6 0.2-1 0.7-0.5 0.5-0.7 1.1-0.2 0.6-0.2 1.2 0 0.7 0.2 1.3 0.2 0.6 0.6 1.1 0.5 0.5 1.1 0.8 0.6 0.2 1.2 0.2 0.7 0 1.3-0.2 0.5-0.3 1-0.8 0.4-0.5 0.6-1.1 0.2-0.6 0.1-1.2z"/><path class="c" d="m190.3 29.2q0.5 0 0.9 0.1 0.5 0 0.9 0.2 0.4 0.2 0.8 0.4 0.4 0.3 0.7 0.7c0.1 0.2 0.7 0.6 0.2 0.9-0.4 0.1-0.9 0.8-1.5 0.1q-0.3-0.3-0.6-0.5-0.4-0.2-0.8-0.3-0.4-0.1-0.8 0-0.4 0-0.8 0.2c-0.4 0.2-0.7 0.5-0.7 1q0 0.1 0 0.3 0.1 0.1 0.2 0.3 0.1 0.1 0.3 0.2 0.1 0.1 0.3 0.1c0.9 0.3 1.9 0.5 2.8 0.8q0.6 0.1 1 0.5 0.5 0.3 0.7 0.8 0.3 0.5 0.3 1.1 0.1 0.5-0.1 1-0.1 0.3-0.2 0.5-0.2 0.2-0.3 0.3-0.1 0.2-0.3 0.4-0.2 0.1-0.4 0.2-0.7 0.5-1.6 0.6-0.8 0.2-1.7 0-0.8-0.2-1.5-0.7-0.8-0.5-1.2-1.2c-0.2-0.2-0.7-0.6 0-0.8 0.4-0.2 0.9-0.9 1.4-0.1q0.2 0.4 0.5 0.7 0.3 0.3 0.7 0.4 0.4 0.2 0.8 0.2 0.4 0 0.8 0c0.7-0.1 1.3-0.4 1.4-1.2 0-0.8-0.5-1.1-1.2-1.3q-0.4-0.1-0.8-0.2-0.4-0.1-0.8-0.2-0.5-0.1-0.9-0.3-0.4-0.2-0.7-0.4-0.6-0.3-1-0.8-0.3-0.6-0.3-1.2 0-0.7 0.3-1.2 0.4-0.6 0.9-0.9 0.3-0.2 0.6-0.3 0.2-0.2 0.5-0.2 0.3-0.1 0.6-0.2 0.3 0 0.6 0z"/><path class="c" d="m175.3 29.2q0.5 0 1 0.1 0.4 0.1 0.8 0.2 0.4 0.2 0.8 0.5 0.3 0.3 0.6 0.7c0.2 0.2 0.6 0.5 0.2 0.7-0.5 0.2-0.9 0.9-1.5 0.2q-0.3-0.3-0.6-0.5-0.3-0.2-0.7-0.3-0.4-0.1-0.8 0-0.4 0-0.7 0.1c-0.5 0.2-0.9 0.4-0.9 1q0 0.2 0 0.4 0.1 0.2 0.2 0.3 0.1 0.1 0.3 0.2 0.1 0.1 0.3 0.1c0.8 0.2 1.5 0.4 2.3 0.6q0.2 0.1 0.4 0.1 0.2 0.1 0.4 0.2 0.2 0.1 0.4 0.2 0.2 0.1 0.4 0.3 0.5 0.4 0.7 0.9 0.2 0.6 0.2 1.2 0 0.7-0.4 1.2-0.3 0.5-0.8 0.9-0.8 0.4-1.6 0.6-0.9 0.2-1.8 0-0.8-0.2-1.6-0.7-0.7-0.5-1.2-1.2c-0.1-0.3-0.6-0.6 0-0.8 0.4-0.2 0.9-1 1.4-0.1q0.2 0.4 0.6 0.6 0.3 0.3 0.6 0.5 0.4 0.1 0.8 0.2 0.4 0 0.8-0.1c0.7-0.1 1.3-0.4 1.4-1.1 0.1-0.8-0.5-1.1-1.1-1.3q-0.5-0.1-0.9-0.2-0.4-0.1-0.9-0.3-0.4-0.1-0.8-0.3-0.4-0.2-0.8-0.4-0.5-0.3-0.8-0.8-0.3-0.5-0.3-1.1 0-0.6 0.2-1.1 0.3-0.6 0.8-0.9 0.2-0.2 0.5-0.3 0.2-0.1 0.5-0.2 0.2-0.1 0.5-0.2 0.3 0 0.5-0.1z"/><path class="c" d="m161.1 31.9q-0.1 0-0.2 0.1-0.2 0-0.3 0.1-0.1 0.1-0.2 0.1-0.2 0.1-0.3 0.2c-0.3 0.1-0.5 0.2-0.8-0.3q-0.2-0.3-0.4-0.6-0.3-0.3-0.7-0.5-0.4-0.1-0.8-0.2-0.4 0-0.8 0.1-0.4 0-0.8 0.2-0.4 0.2-0.8 0.5-0.3 0.3-0.5 0.7-0.2 0.3-0.3 0.8c-0.8 2.4 0.8 4.6 3.1 4.5q0.4 0 0.7-0.1 0.3-0.1 0.5-0.3 0.3-0.1 0.5-0.4 0.2-0.2 0.4-0.5c0.5-0.9 1-0.1 1.5 0.1 0.7 0.3 0 0.7-0.1 0.9q-0.4 0.6-1 1-0.5 0.5-1.2 0.7-0.7 0.2-1.4 0.3-0.7 0-1.4-0.2-0.7-0.2-1.2-0.6-0.6-0.4-1.1-0.9-0.5-0.5-0.8-1.1-0.2-0.7-0.3-1.4c-0.4-2.8 1-5 3.4-5.7q0.8-0.2 1.6-0.2 0.8 0 1.6 0.4 0.7 0.3 1.3 0.9 0.5 0.6 0.8 1.4z"/><path class="c" d="m181.3 34c0-0.7 0-1.4 0-2.1 0.1-0.6 0-0.9-0.7-0.8-0.6 0.1-1 0-0.9-0.8 0-0.8 0.3-0.9 0.9-0.8 0.7 0.1 0.8-0.2 0.7-0.8 0-0.4 0.1-0.7 0-1.1-0.1-0.8 0.2-1.1 1.1-1 0.6 0 0.8 0.2 0.7 0.8q0 0 0 0.1 0 0.1 0 0.1 0 0.1 0 0.1 0 0.1 0 0.1c0 1.6 0 1.7 1.5 1.7 0.8-0.1 0.8 0.2 0.8 0.8 0 0.6-0.1 0.8-0.8 0.8-1.5 0-1.5 0-1.5 1.6 0 1 0 2.1 0 3.1 0 1.2 0.4 1.7 1.6 1.6 0.9-0.1 0.8 0.6 0.9 1.1 0.2 0.7-0.5 0.4-0.7 0.5q-0.7 0.2-1.4 0-0.6-0.2-1.2-0.6-0.5-0.4-0.8-1.1-0.2-0.6-0.1-1.3-0.1-1-0.1-2z"/><path class="c" d="m104.5 31.5c0-2.3 0-4.5 0-6.7 0-0.6 0.1-0.8 0.8-0.7q0.1 0 0.2 0 0.1 0 0.2 0 0.1 0 0.2 0 0.1 0 0.2 0c0.4-0.1 0.6 0 0.6 0.5 0 4.6 0 9.2 0 13.8 0 0.4-0.1 0.5-0.5 0.5q-0.1 0-0.2 0-0.1 0-0.2 0-0.1 0-0.2 0-0.1 0-0.2 0c-0.7 0.1-0.9-0.2-0.9-0.9 0.1-2.2 0-4.4 0-6.5z"/><path class="d" d="m29.2 10.6c0 0.4 0.1 0.9 0 1.3q0 0.4-0.2 0.8-0.1 0.4-0.4 0.6-0.3 0.3-0.7 0.4-0.3 0.2-0.7 0.2-0.4 0-0.8-0.1-0.4-0.2-0.7-0.4-0.3-0.3-0.4-0.7-0.2-0.3-0.3-0.7 0-0.4 0-0.7 0-0.3 0-0.7 0-0.3 0-0.6 0-0.4 0-0.7 0.1-0.4 0.3-0.8 0.1-0.3 0.4-0.6 0.3-0.3 0.7-0.4 0.4-0.1 0.8-0.1 0.4 0 0.7 0.1 0.4 0.2 0.7 0.5 0.3 0.2 0.4 0.6 0.2 0.4 0.2 0.7c0.1 0.5 0 0.9 0 1.3z"/><path class="d" d="m25 37.9c0-0.4 0-0.9 0-1.3q0.1-0.4 0.2-0.8 0.2-0.4 0.5-0.6 0.3-0.3 0.7-0.4 0.3-0.2 0.7-0.2 0.4 0 0.8 0.2 0.4 0.1 0.7 0.4 0.3 0.3 0.4 0.6 0.2 0.4 0.2 0.8 0 0.3 0 0.6 0.1 0.4 0.1 0.7 0 0.3-0.1 0.6 0 0.3 0 0.7 0 0.4-0.2 0.7-0.1 0.4-0.4 0.7-0.3 0.2-0.7 0.4-0.3 0.2-0.7 0.2-0.5 0-0.8-0.2-0.4-0.1-0.7-0.4-0.3-0.3-0.5-0.7-0.2-0.3-0.2-0.8c0-0.4 0-0.8 0-1.2z"/><path class="f" d="m21.7 31.2q0.1 0.1 0.1 0.3 0 0.2 0 0.3 0 0.2 0 0.4 0 0.1-0.1 0.3 0 0.4-0.2 0.8-0.2 0.3-0.5 0.6-0.3 0.2-0.6 0.4-0.4 0.1-0.8 0.1-0.4 0-0.7-0.1-0.4-0.2-0.7-0.4-0.3-0.3-0.4-0.7-0.2-0.3-0.2-0.7-0.1-0.3-0.1-0.7 0-0.3 0-0.6 0-0.4 0-0.7 0-0.3 0.1-0.7 0-0.4 0.2-0.7 0.2-0.4 0.5-0.7 0.3-0.2 0.6-0.4 0.4-0.1 0.8-0.1 0.4 0 0.7 0.2 0.4 0.1 0.7 0.4 0.3 0.2 0.4 0.6 0.2 0.3 0.2 0.7 0.1 0.2 0.1 0.4 0 0.1 0 0.3 0 0.2 0 0.3 0 0.2-0.1 0.4z"/><path class="e" d="m36.7 17.4c0 0.4 0.1 0.8 0 1.2q0 0.4-0.2 0.8-0.1 0.4-0.4 0.6-0.3 0.3-0.7 0.5-0.4 0.1-0.8 0.1-0.4 0-0.7-0.1-0.4-0.2-0.7-0.4-0.3-0.3-0.5-0.7-0.1-0.3-0.2-0.7 0-0.4 0-0.7 0-0.3 0-0.6 0-0.3 0-0.7 0-0.3 0-0.6 0.1-0.4 0.2-0.8 0.2-0.3 0.5-0.6 0.3-0.3 0.7-0.4 0.3-0.2 0.7-0.2 0.4 0 0.8 0.2 0.4 0.1 0.7 0.4 0.3 0.2 0.4 0.6 0.2 0.4 0.2 0.8c0.1 0.4 0 0.8 0 1.3z"/><path fill-rule="evenodd" class="g" d="m82.9 14.8c-0.6 0-1.2 0.1-1.8 0-0.6 0-0.6 0.3-0.5 0.7q0.1 0.6 0.5 1 0.3 0.4 0.9 0.6 0.5 0.2 1 0.1 0.6-0.1 1-0.5c0.4-0.3 0.7-0.5 1.1 0 0.3 0.5-0.2 0.6-0.4 0.8q-0.7 0.5-1.6 0.7-0.8 0.1-1.6-0.1-0.8-0.3-1.4-0.9-0.6-0.7-0.8-1.5c-0.5-2.5 0.6-4.6 2.7-4.9q0.7-0.1 1.4 0.1 0.8 0.3 1.3 0.8 0.5 0.6 0.7 1.3 0.2 0.8 0 1.5c-0.1 0.4-0.3 0.4-0.6 0.4q-0.9-0.1-1.9-0.1zm-0.6-1h1.4c0.3 0 0.5-0.1 0.4-0.5q0-0.2-0.1-0.5 0-0.2-0.2-0.4-0.1-0.2-0.3-0.4-0.3-0.1-0.5-0.2-0.3-0.1-0.5-0.1-0.3 0-0.6 0.1-0.2 0.1-0.5 0.2-0.2 0.2-0.4 0.4c-0.2 0.4-0.5 0.9-0.4 1.2 0.2 0.4 0.7 0.2 1.1 0.2q0 0 0.1 0 0.1 0 0.2 0 0.1 0 0.2 0 0 0 0.1 0z"/><path class="h" d="m14.4 24.3c0 0.4 0.1 0.8 0 1.3q0 0.4-0.2 0.7-0.1 0.4-0.4 0.7-0.3 0.2-0.7 0.4-0.3 0.1-0.7 0.1-0.4 0-0.8-0.1-0.4-0.1-0.7-0.4-0.3-0.3-0.4-0.7-0.2-0.3-0.2-0.7-0.1-0.3-0.1-0.6 0-0.4 0-0.7 0-0.3 0-0.6 0-0.3 0.1-0.6 0-0.4 0.1-0.8 0.2-0.4 0.5-0.7 0.3-0.3 0.7-0.4 0.4-0.2 0.8-0.2 0.4 0 0.8 0.2 0.4 0.1 0.7 0.4 0.2 0.3 0.4 0.7 0.2 0.4 0.2 0.8 0 0.6-0.1 1.2z"/><path class="i" d="m39.8 24.2c0-0.4 0-0.8 0-1.2q0-0.4 0.2-0.7 0.2-0.4 0.5-0.7 0.2-0.3 0.6-0.4 0.4-0.2 0.8-0.2 0.4 0 0.8 0.2 0.4 0.1 0.7 0.4 0.3 0.3 0.4 0.7 0.2 0.3 0.2 0.8 0 0.3 0 0.6 0.1 0.3 0.1 0.6 0 0.3-0.1 0.6 0 0.3 0 0.7 0 0.4-0.2 0.7-0.1 0.4-0.4 0.7-0.3 0.2-0.7 0.4-0.3 0.2-0.7 0.2-0.5 0-0.8-0.2-0.4-0.1-0.7-0.4-0.3-0.3-0.5-0.7-0.2-0.4-0.2-0.8c0-0.4 0-0.8 0-1.3z"/><path fill-rule="evenodd" class="g" d="m98.6 14.5c0-2.6 1.9-4.3 4.3-3.7q0 0 0.1 0.1 0 0 0.1 0 0 0 0.1 0 0.1 0.1 0.1 0.1c1.6 0.7 2.4 2.8 1.8 4.9q-0.2 0.5-0.5 1-0.4 0.5-0.9 0.8-0.5 0.4-1 0.5-0.6 0.1-1.2 0-0.7-0.1-1.2-0.4-0.6-0.4-1-0.9-0.4-0.5-0.6-1.1-0.1-0.7-0.1-1.3zm5.4 0c0-1.6-0.7-2.7-2-2.8-1.3 0-2.1 1.1-2.1 2.9 0 1.8 0.9 2.7 2.3 2.6 1.1-0.1 1.8-1.1 1.8-2.7z"/><path class="g" d="m108.3 11.8q0.2-0.2 0.4-0.4 0.3-0.2 0.5-0.3 0.3-0.1 0.5-0.2 0.3-0.1 0.6-0.2 0.4-0.1 0.9 0 0.4 0.1 0.8 0.3 0.4 0.3 0.6 0.7 0.2 0.4 0.2 0.8 0.1 0.7 0.1 1.3 0.1 0.7 0.1 1.3 0 0.7 0 1.3 0 0.7 0 1.3c0 0.5-0.4 0.4-0.7 0.4-0.4 0.1-0.6-0.1-0.6-0.6q0-2 0-4c0-1.3-0.4-1.8-1.5-1.8q-0.4 0-0.7 0.2-0.3 0.1-0.6 0.4-0.2 0.2-0.4 0.6-0.1 0.3-0.1 0.7v3.6c0 0.4 0.2 0.9-0.6 0.9-0.7 0-0.6-0.4-0.6-0.8v-5.7c0-0.3-0.3-0.8 0.4-0.8 0.6 0 1 0 0.7 1z"/><path class="g" d="m88.4 11.7q0.2-0.2 0.4-0.3 0.2-0.2 0.4-0.3 0.2-0.1 0.4-0.2 0.2-0.1 0.4-0.1c1.6-0.4 2.8 0.3 2.9 1.9 0.2 1.7 0.1 3.3 0.1 5 0 0.5-0.3 0.4-0.6 0.5-0.5 0-0.7-0.1-0.7-0.6q0.1-2 0-4c0-1.4-0.4-1.8-1.5-1.8q-0.3 0-0.7 0.1-0.3 0.2-0.5 0.4-0.3 0.3-0.4 0.6-0.1 0.4-0.1 0.7v3.9c0 0.4 0 0.7-0.6 0.7-0.6 0-0.7-0.3-0.7-0.8 0.1-1.9 0-3.8 0.1-5.8 0-0.3-0.2-0.7 0.4-0.8 0.5 0 0.8 0.1 0.7 0.9z"/><path class="g" d="m69.8 10.7q0.4 0 0.7 0 0.4 0.1 0.7 0.3 0.3 0.2 0.6 0.4 0.3 0.3 0.4 0.6c0.2 0.3 0.5 0.7 0.1 0.9-0.3 0.1-0.9 0.3-1.2-0.4-0.4-0.8-1.2-0.9-2-0.7q-0.1 0-0.3 0.1-0.1 0.1-0.3 0.2-0.1 0.1-0.1 0.3-0.1 0.2-0.1 0.3c-0.1 0.5 0.3 0.8 0.7 0.9 0.7 0.3 1.4 0.4 2.1 0.7q0.3 0 0.6 0.2 0.3 0.2 0.5 0.5 0.2 0.2 0.3 0.5 0.1 0.3 0 0.7 0 0.3-0.1 0.6-0.1 0.3-0.3 0.6-0.2 0.2-0.5 0.4-0.3 0.2-0.6 0.2-0.5 0.3-1.1 0.3-0.5 0-1-0.1-0.6-0.2-1-0.5-0.5-0.3-0.8-0.8c-0.2-0.3-0.5-0.7-0.1-1q0.1-0.1 0.3-0.1 0.2 0 0.4 0 0.1 0.1 0.3 0.2 0.1 0.2 0.1 0.3 0.2 0.4 0.5 0.6 0.3 0.2 0.7 0.3 0.3 0.1 0.7 0 0.4 0 0.7-0.2 0.1 0 0.2-0.1 0.1-0.1 0.2-0.2 0.1-0.1 0.1-0.2 0.1-0.2 0.1-0.3 0-0.1-0.1-0.3 0-0.1-0.1-0.2-0.1-0.2-0.2-0.2-0.1-0.1-0.2-0.2c-0.5-0.2-1.1-0.3-1.7-0.5-1.6-0.5-2.1-1.1-2-2.2q0.1-0.5 0.4-0.9 0.3-0.3 0.7-0.6 0.4-0.3 0.8-0.4 0.5-0.1 0.9 0z"/><path class="g" d="m55.9 13.2v-4c0-0.4-0.2-0.9 0.7-0.9 0.8 0 0.6 0.5 0.6 1 0 2.3 0.1 4.5 0 6.8 0 0.7 0.2 1 1 1 1-0.1 2.1 0 3.2-0.1 0.3 0 0.5 0.1 0.5 0.6 0 0.4-0.1 0.5-0.5 0.5q-2.4 0-4.9 0c-0.5 0-0.5-0.3-0.5-0.6q-0.1-2.2-0.1-4.3z"/><path class="g" d="m75 14.3c0-0.5 0-1 0-1.5 0-0.6 0-1.2-0.9-1-0.3 0-0.4-0.2-0.5-0.5 0-0.4 0.2-0.5 0.5-0.5 0.8 0.2 0.9-0.3 0.9-0.9-0.1-0.5-0.1-0.9 0.6-0.9 0.7 0 0.7 0.4 0.7 0.8-0.1 0.7 0 1.2 0.8 1 0.4-0.1 0.5 0.2 0.5 0.5 0 0.4-0.2 0.5-0.5 0.5-0.8-0.2-0.9 0.3-0.8 0.9 0 1.2 0 2.4 0 3.6 0 0.5 0.2 0.9 0.8 0.9 0.3-0.1 0.6-0.1 0.6 0.4 0 0.4-0.2 0.5-0.6 0.6q-0.3 0.1-0.7 0-0.3 0-0.6-0.2-0.3-0.2-0.5-0.6-0.2-0.3-0.2-0.6c-0.1-0.9-0.1-1.7-0.1-2.5q0 0 0 0z"/><path class="g" d="m64.8 14.5v3c0 0.4 0 0.7-0.6 0.7-0.4-0.1-0.7-0.1-0.7-0.6q0.1-3.1 0-6.2c0-0.5 0.3-0.6 0.7-0.6 0.5 0 0.6 0.3 0.6 0.7z"/><path class="g" d="m64.1 9.6q-0.2 0-0.3-0.1-0.1 0-0.2-0.1-0.1-0.1-0.1-0.3-0.1-0.1-0.1-0.2 0-0.2 0.1-0.3 0-0.1 0.2-0.2 0.1-0.1 0.2-0.2 0.1 0 0.3 0 0.1 0 0.2 0 0.2 0.1 0.3 0.2 0.1 0.1 0.1 0.2 0.1 0.1 0.1 0.3c0 0.4-0.2 0.6-0.8 0.7z"/></g></svg>