<svg version="1.2" xmlns="http://www.w3.org/2000/svg" viewBox="0 0 547 50" width="547" height="50"><defs><clipPath clipPathUnits="userSpaceOnUse" id="cp1"><path d="m-215-472h1600v3931h-1600z"/></clipPath></defs><style>tspan{white-space:pre}.a{fill:#ff5300}.b{fill:#fff}.c{fill:#333}.d{font-size: 12px;fill: #ff5300;font-weight: 400;font-family: "Roboto-Regular", "Roboto"}.e{fill:#dbdbdb}</style><g clip-path="url(#cp1)"><rect class="a" width="50" height="50" rx="25"></rect><path class="b" d="m19.8 17.1l13.2 7.6q0.2 0.1 0.3 0.2 0.1 0.2 0.1 0.3 0 0.2-0.1 0.3-0.1 0.2-0.3 0.3l-13.2 7.6q-0.1 0.1-0.3 0.1-0.1 0-0.3-0.1-0.1-0.1-0.2-0.2-0.1-0.2-0.1-0.3v-15.3q0-0.2 0.1-0.3 0.1-0.1 0.2-0.2 0.2-0.1 0.3-0.1 0.2 0 0.3 0.1z"/><path class="c" d="m508.7 27.5q0.5-0.6 0.7-1.3 0.3-0.7 0.3-1.4 0-0.8-0.3-1.5-0.2-0.7-0.7-1.3-0.1-0.1-0.1-0.2-0.1-0.1 0-0.2 0-0.1 0-0.3 0.1-0.1 0.2-0.2 0.1-0.1 0.2-0.1 0.1 0 0.3 0 0.1 0 0.2 0 0.1 0.1 0.2 0.2 0.6 0.7 1 1.7 0.3 0.9 0.3 1.9 0 0.9-0.3 1.9-0.4 0.9-1 1.6-0.1 0.1-0.2 0.2-0.1 0-0.2 0.1-0.2 0-0.3-0.1-0.1 0-0.2-0.1-0.1-0.1-0.2-0.2 0-0.1-0.1-0.3 0-0.1 0.1-0.2 0-0.1 0.1-0.2z"/><path class="c" d="m511.1 29.9q0.9-1.1 1.5-2.4 0.5-1.3 0.5-2.7 0-1.5-0.5-2.8-0.6-1.3-1.5-2.4-0.1-0.1-0.2-0.2 0-0.1 0-0.3 0-0.1 0.1-0.2 0-0.1 0.1-0.2 0.1-0.1 0.2-0.2 0.2 0 0.3 0 0.1 0 0.2 0.1 0.2 0 0.3 0.1 1.1 1.2 1.8 2.8 0.6 1.6 0.6 3.3 0 1.7-0.6 3.2-0.7 1.6-1.8 2.8-0.1 0.1-0.3 0.2-0.1 0-0.2 0-0.1 0-0.3 0-0.1-0.1-0.2-0.2-0.1 0-0.1-0.2-0.1-0.1-0.1-0.2 0-0.2 0-0.3 0.1-0.1 0.2-0.2z"/><path class="c" d="m513.6 33.2q-0.1 0-0.2-0.2 0-0.1 0-0.2 0-0.1 0-0.2 0-0.2 0.1-0.3c1-1 1.7-2.2 2.2-3.5 0.6-1.3 0.8-2.6 0.8-4 0-1.4-0.2-2.8-0.8-4.1-0.5-1.3-1.2-2.5-2.2-3.5q-0.1-0.1-0.1-0.2 0-0.2 0-0.3 0-0.1 0-0.2 0.1-0.1 0.2-0.2v-0.1q0.1-0.1 0.3-0.2 0.1 0 0.2 0 0.2 0 0.3 0.1 0.1 0 0.2 0.1c1.1 1.2 1.9 2.5 2.5 4 0.6 1.4 0.9 3 0.9 4.6 0 1.5-0.3 3.1-0.9 4.6-0.6 1.4-1.4 2.8-2.5 3.9q-0.1 0.1-0.2 0.2-0.1 0-0.3 0-0.1 0-0.2 0-0.2-0.1-0.3-0.2z"/><path class="c" d="m499.6 21.2q0.1 0 0.2 0 0 0 0.1-0.1 0 0 0.1 0l5.6-4.6q0.2-0.1 0.4-0.1 0.2-0.1 0.4 0 0.2 0.1 0.3 0.3 0.1 0.2 0.1 0.4v15.3q0 0.2-0.1 0.4-0.1 0.2-0.3 0.3-0.2 0.1-0.4 0-0.2 0-0.4-0.1l-5.6-4.6q-0.1 0-0.1 0-0.1-0.1-0.1-0.1-0.1 0-0.2 0 0 0-0.1 0h-6q-0.2 0-0.3-0.1-0.1-0.1-0.2-0.2-0.1-0.1-0.2-0.2-0.1-0.1-0.1-0.3v-5.5q0-0.2 0.1-0.3 0.1-0.1 0.2-0.2 0.1-0.1 0.2-0.2 0.1-0.1 0.3-0.1h6q0.1 0 0.1 0z"/><text style="transform:matrix(1,0,0,1,61,29)" ><tspan x="0" y="0" class="d">26.00
</tspan></text><text style="transform:matrix(1,0,0,1,448,29)" ><tspan x="0" y="0" class="d">43.25
</tspan></text><rect class="e" x="102.5" y="22" width="335" height="5.3" rx="2.7"></rect><rect class="a" x="102" y="22" width="139.3" height="5.3" rx="2.7"></rect><circle class="b" cx="242" cy="25" r="15"/><circle class="a" cx="242" cy="25" r="4"/><path class="c" d="m546 33.4v1q0 0.1 0 0.2 0 0.1-0.1 0.1-0.1 0.1-0.2 0.2-0.1 0-0.2 0h-11q-0.1 0-0.2 0-0.1-0.1-0.2-0.2 0 0-0.1-0.1 0-0.1 0-0.2v-1q0-0.1 0-0.2 0-0.1 0.1-0.2 0.1-0.1 0.2-0.1 0.1-0.1 0.2-0.1h11q0.1 0.1 0.2 0.1 0.1 0.1 0.2 0.1 0.1 0.1 0.1 0.2 0 0.1 0 0.2z"/><path class="c" d="m547.1 24q0 0.1 0 0.1 0 0.1 0 0.1 0 0.1-0.1 0.1l-6.7 6.8q-0.1 0-0.1 0-0.1 0.1-0.2 0.1 0 0-0.1-0.1 0 0-0.1 0l-6.7-6.8q-0.1-0.1-0.1-0.2 0-0.1 0-0.1 0.1-0.1 0.1-0.2 0.1-0.1 0.2-0.1h3.7v-8.4q0 0 0.1-0.1 0-0.1 0-0.1 0.1 0 0.1-0.1 0.1 0 0.2 0h5.4q0 0 0.1 0 0 0 0.1 0.1 0 0 0.1 0.1 0 0.1 0 0.1v8.4h3.7q0 0 0.1 0.1 0 0 0.1 0 0 0 0 0.1 0.1 0 0.1 0.1 0 0 0 0z"/></g></svg>