<svg version="1.2" xmlns="http://www.w3.org/2000/svg" viewBox="0 0 262 45" width="262" height="45"><defs><clipPath clipPathUnits="userSpaceOnUse" id="cp1"><path d="m-272-3678h1600v3931h-1600z"/></clipPath></defs><style>.a{fill:none}.b{fill:none;stroke:#ff5300}.c{fill:#ff5300}</style><g clip-path="url(#cp1)"><circle class="a" cx="23" cy="22.5" r="22.5"/><circle class="b" cx="23" cy="22.5" r="22"/><circle class="a" cx="95" cy="22.5" r="22.5"/><circle class="b" cx="95" cy="22.5" r="22"/><circle class="a" cx="167" cy="22.5" r="22.5"/><circle class="b" cx="167" cy="22.5" r="22"/><circle class="a" cx="239" cy="22.5" r="22.5"/><circle class="b" cx="239" cy="22.5" r="22"/><path class="c" d="m26.9 19.6l-0.3 2.9h-2.3v8.5h-3.5v-8.5h-1.8v-2.9h1.8v-1.8c0-2.4 0.9-3.8 3.8-3.8h2.3v2.9h-1.5c-1.1 0-1.1 0.4-1.1 1.2v1.5z"/><path fill-rule="evenodd" class="c" d="m87.2 20h3.4v10.3h-3.4zm1.7-5q-0.3 0-0.7 0.1-0.3 0.1-0.6 0.4-0.3 0.2-0.4 0.6-0.2 0.3-0.2 0.7 0 0.4 0.1 0.7 0.2 0.4 0.5 0.6 0.2 0.3 0.6 0.4 0.3 0.1 0.7 0.1c0.5 0 1-0.1 1.4-0.5 0.3-0.3 0.6-0.8 0.6-1.3 0-0.5-0.2-1-0.6-1.3-0.4-0.3-0.9-0.5-1.4-0.5zm10.2 4.8q-0.5-0.1-1 0-0.4 0.1-0.8 0.4-0.4 0.2-0.8 0.5-0.3 0.4-0.5 0.8v-1.5h-3.5c0 0 0.1 1 0 10.3h3.5v-5.7q0-0.2 0-0.3 0-0.1 0-0.2 0-0.1 0-0.2 0-0.1 0.1-0.2 0.1-0.3 0.2-0.5 0.2-0.2 0.5-0.4 0.2-0.2 0.5-0.2 0.2-0.1 0.5-0.1c1.3 0 1.8 0.9 1.8 2.3v5.5h3.4v-5.9c0-3.2-1.7-4.6-3.9-4.6z"/><path fill-rule="evenodd" class="c" d="m173.5 14.3q0.8 0.3 1.3 0.9 0.6 0.5 0.9 1.3 0.3 0.7 0.3 1.5v9q0 0.8-0.3 1.5-0.3 0.8-0.9 1.3-0.5 0.6-1.3 0.9-0.7 0.3-1.5 0.3h-9q-0.8 0-1.5-0.3-0.8-0.3-1.3-0.9-0.6-0.5-0.9-1.3-0.3-0.7-0.3-1.5v-9q0-0.8 0.3-1.5 0.3-0.8 0.9-1.3 0.5-0.6 1.3-0.9 0.7-0.3 1.5-0.3h9q0.8 0 1.5 0.3zm1.5 6.7h-3.2q0.1 0.2 0.2 0.5 0.1 0.2 0.1 0.5 0.1 0.2 0.1 0.5 0 0.2 0 0.5c0 1.3-0.5 2.5-1.3 3.4-0.9 0.8-2.1 1.3-3.4 1.3-1.3 0-2.5-0.5-3.4-1.3-0.8-0.9-1.4-2.1-1.4-3.4q0.1-0.3 0.1-0.5 0-0.3 0.1-0.5 0-0.3 0.1-0.5 0.1-0.3 0.2-0.5h-3.2v6q0 0.6 0.2 1.1 0.3 0.6 0.7 1 0.4 0.4 1 0.7 0.5 0.2 1.1 0.2h9q0.6 0 1.1-0.2 0.6-0.3 1-0.7 0.4-0.4 0.7-1 0.2-0.5 0.2-1.1zm-4 0.6q-0.3-0.7-0.8-1.3-0.6-0.5-1.3-0.8-0.7-0.2-1.4-0.3c-1.5 0-2.9 1-3.5 2.4-0.5 1.4-0.2 3 0.8 4.1 1.1 1 2.7 1.3 4.1 0.8 1.4-0.6 2.3-2 2.3-3.5q0-0.7-0.2-1.4zm4-1.6v-2q0-0.6-0.2-1.1-0.3-0.6-0.7-1-0.4-0.4-1-0.7-0.5-0.2-1.1-0.2h-9q-0.6 0-1.1 0.2-0.6 0.3-1 0.7-0.4 0.4-0.7 1-0.2 0.5-0.2 1.1v2h3.8q0.7-0.8 1.7-1.3 0.9-0.4 2-0.4 1.1 0 2 0.4 1 0.5 1.6 1.3zm-1.5-3.3v1.3q0 0.1 0 0.2-0.1 0.1-0.2 0.2 0 0.1-0.1 0.1-0.1 0.1-0.2 0.1h-1.4q-0.1 0-0.2-0.1-0.1 0-0.2-0.1-0.1-0.1-0.1-0.2 0-0.1-0.1-0.2v-1.3q0.1-0.1 0.1-0.2 0-0.1 0.1-0.2 0.1 0 0.2-0.1 0.1 0 0.2 0h1.4q0.1 0 0.2 0 0.1 0.1 0.1 0.1 0.1 0.1 0.2 0.2 0 0.1 0 0.2z"/><path fill-rule="evenodd" class="c" d="m247.5 24.5q0.2 0.3 0.3 0.7 0.1 0.3 0.1 0.6 0.1 0.4 0.1 0.7 0 0.9-0.3 1.7-0.4 0.8-1 1.5-0.7 0.6-1.5 1-0.8 0.3-1.7 0.3-0.3 0-0.7-0.1-0.3 0-0.6-0.1-0.4-0.1-0.7-0.3-0.3-0.1-0.6-0.3c-1.1 0.2-2.3 0.2-3.4-0.1-1.1-0.3-2.1-0.8-3-1.6-0.9-0.7-1.6-1.6-2.1-2.7-0.5-1-0.7-2.1-0.7-3.3q0-0.2 0-0.4 0-0.1 0-0.3 0-0.2 0-0.4 0.1-0.2 0.1-0.3-0.2-0.3-0.3-0.6-0.2-0.3-0.3-0.7-0.1-0.3-0.1-0.6-0.1-0.4-0.1-0.7 0-0.9 0.3-1.7 0.4-0.8 1-1.5 0.7-0.6 1.5-1 0.8-0.3 1.7-0.3 0.3 0 0.7 0.1 0.3 0 0.6 0.1 0.4 0.1 0.7 0.3 0.3 0.1 0.6 0.3c1.1-0.2 2.3-0.2 3.4 0.1 1.1 0.3 2.1 0.8 3 1.6 0.9 0.7 1.6 1.6 2.1 2.7 0.5 1 0.7 2.1 0.7 3.3q0 0.2 0 0.4 0 0.1 0 0.3 0 0.2 0 0.4-0.1 0.2-0.1 0.3 0.2 0.3 0.3 0.6zm-2.7 5.2q0.7-0.2 1.2-0.7 0.5-0.5 0.7-1.2 0.3-0.6 0.3-1.3 0-0.3 0-0.6-0.1-0.3-0.2-0.5-0.1-0.3-0.2-0.6-0.2-0.2-0.3-0.4l-0.2-0.2 0.1-0.2q0-0.2 0-0.4 0.1-0.2 0.1-0.4 0-0.1 0-0.3 0-0.2 0-0.4 0-1.4-0.5-2.6-0.5-1.3-1.5-2.2-0.9-1-2.2-1.5-1.2-0.5-2.6-0.5-0.2 0-0.4 0-0.2 0-0.3 0-0.2 0-0.4 0.1-0.2 0-0.4 0l-0.2 0.1-0.2-0.2c-0.6-0.5-1.5-0.7-2.3-0.7-0.9 0.1-1.7 0.5-2.2 1.1-0.6 0.6-1 1.3-1.1 2.2 0 0.8 0.2 1.7 0.7 2.3l0.2 0.2-0.1 0.2q0 0.2 0 0.4-0.1 0.2-0.1 0.4 0 0.1 0 0.3 0 0.2 0 0.4 0 1.4 0.5 2.6 0.5 1.3 1.5 2.2 0.9 1 2.2 1.5 1.2 0.5 2.6 0.5 0.2 0 0.4 0 0.2 0 0.3 0 0.2 0 0.4-0.1 0.2 0 0.4 0l0.2-0.1 0.2 0.2q0.2 0.1 0.4 0.3 0.3 0.1 0.6 0.2 0.2 0.1 0.5 0.2 0.3 0 0.6 0 0.7 0 1.3-0.3zm-1.1-5.5c0 2.2-2 3.1-4 3.1-2.3 0-4.3-1-4.3-2.3q0-0.2 0.1-0.4 0-0.2 0.2-0.4 0.1-0.1 0.3-0.2 0.3-0.1 0.5-0.1c1.1 0 1.2 1.6 3.1 1.6 0.9 0 1.5-0.4 1.5-0.9 0-0.7-0.5-0.8-1.5-1l-1.5-0.4c-1.5-0.4-2.7-1-2.7-2.7 0-2.1 2.1-2.9 3.9-2.9 2 0 4 0.7 4 1.9q0 0.3-0.1 0.5-0.1 0.2-0.2 0.4-0.2 0.1-0.4 0.2-0.2 0.1-0.4 0.1c-1 0-1.1-1.2-2.7-1.2-0.9 0-1.5 0.2-1.5 0.8 0 0.6 0.6 0.7 1.4 0.9l1.1 0.3c1.5 0.3 3.2 0.9 3.2 2.7z"/></g></svg>