<svg version="1.2" xmlns="http://www.w3.org/2000/svg" viewBox="0 0 131 51" width="131" height="51"><defs><clipPath clipPathUnits="userSpaceOnUse" id="cp1"><path d="m-213-611h1600v3931h-1600z"/></clipPath></defs><style>.a{fill:none}.b{fill:none;stroke:#e5e5e5}.c{fill:#1ed760}.d{fill:#333}.e{fill:#1e1a1a}.f{fill:#999}</style><g clip-path="url(#cp1)"><rect class="a" x="1" y="1" width="130" height="50" rx="4"></rect><rect class="b" x="1.5" y="1.5" width="129" height="49" rx="3.5"></rect><path fill-rule="evenodd" class="c" d="m46 26.4c0 2.3-0.4 4.6-1.3 6.7-0.8 2-2.1 4-3.7 5.5-1.6 1.6-3.5 2.9-5.6 3.8-2.1 0.8-4.4 1.3-6.6 1.2-2.3 0-4.5-0.4-6.6-1.3-2.1-0.8-4-2.1-5.5-3.7-1.6-1.6-2.9-3.5-3.8-5.6-0.8-2-1.2-4.3-1.2-6.5-0.1-2.3 0.4-4.6 1.3-6.7 0.9-2.2 2.2-4.1 3.9-5.7 1.6-1.6 3.6-2.9 5.7-3.7 2.2-0.9 4.5-1.3 6.8-1.2 2.2 0.1 4.4 0.6 6.4 1.5 2 0.9 3.8 2.2 5.4 3.8 1.5 1.6 2.7 3.4 3.6 5.5 0.8 2 1.2 4.2 1.2 6.4zm-19.7-8.3c-0.5 0-1.3 0.1-2 0.1q-0.8 0.1-1.6 0.1-0.8 0.1-1.6 0.3-0.8 0.1-1.5 0.3-0.8 0.1-1.6 0.4-0.3 0.1-0.6 0.3-0.3 0.2-0.4 0.5-0.2 0.3-0.2 0.6-0.1 0.4 0.1 0.7 0.1 0.3 0.3 0.6 0.2 0.3 0.5 0.4 0.3 0.2 0.6 0.2 0.4 0.1 0.7 0 1-0.3 2.1-0.5 1-0.2 2.1-0.3 1.1-0.1 2.1-0.2 1.1 0 2.2 0.1 0.7 0 1.4 0 0.6 0.1 1.3 0.2 0.7 0.1 1.4 0.2 0.7 0.1 1.4 0.2 0.8 0.2 1.5 0.4 0.8 0.2 1.5 0.5 0.8 0.3 1.5 0.6 0.7 0.3 1.4 0.7 0.3 0.2 0.7 0.3 0.3 0 0.7 0 0.4-0.1 0.6-0.4 0.3-0.2 0.5-0.5c0.5-1 0.2-1.9-0.9-2.5q-1.7-0.8-3.4-1.5-1.7-0.6-3.5-1-1.8-0.4-3.6-0.6-1.9-0.2-3.7-0.2zm-8.3 8.5q0 0.1 0 0.2 0 0.1 0.1 0.3 0 0.1 0.1 0.2 0 0.1 0.1 0.2 0.2 0.1 0.4 0.3 0.2 0.1 0.5 0.1 0.2 0.1 0.4 0 0.3 0 0.5-0.1 1.4-0.3 2.9-0.5 1.4-0.2 2.9-0.2 1.5 0 2.9 0.1 1.5 0.2 2.9 0.6 0.7 0.1 1.4 0.4 0.6 0.2 1.3 0.4 0.6 0.3 1.3 0.6 0.6 0.3 1.2 0.6 0.2 0.2 0.5 0.3 0.3 0 0.6 0 0.3-0.1 0.6-0.3 0.2-0.1 0.4-0.4 0.1-0.3 0.2-0.6 0-0.3-0.1-0.6-0.1-0.3-0.3-0.5-0.2-0.2-0.4-0.4-0.1 0-0.2-0.1-0.1 0-0.2-0.1-0.1 0-0.2-0.1-0.1 0-0.2-0.1-1.4-0.8-3-1.3-1.5-0.6-3.1-0.9-1.6-0.4-3.2-0.5-1.6-0.1-3.3-0.1-0.7 0-1.5 0.1-0.7 0.1-1.5 0.2-0.7 0.1-1.4 0.3-0.8 0.2-1.5 0.4-0.3 0-0.5 0.2-0.2 0.1-0.4 0.3-0.1 0.2-0.2 0.5 0 0.2 0 0.5zm8.1 3.2q-0.8 0-1.6 0-0.7 0.1-1.5 0.1-0.8 0.1-1.6 0.3-0.8 0.1-1.5 0.3c-0.9 0.2-1.4 0.7-1.2 1.5q0.1 0.2 0.3 0.4 0.1 0.2 0.4 0.4 0.2 0.1 0.5 0.1 0.2 0 0.5 0c0.5-0.1 1-0.3 1.5-0.4q1-0.1 1.9-0.2 1-0.1 1.9-0.1 1-0.1 1.9 0 1 0.1 1.9 0.2 0.7 0.2 1.4 0.4 0.7 0.2 1.4 0.5 0.7 0.2 1.3 0.5 0.7 0.3 1.3 0.6 0.1 0 0.3 0.1 0.1 0 0.2 0.1 0.2 0 0.3 0 0.1 0 0.3 0 0.1 0 0.3 0 0.1-0.1 0.3-0.2 0.1-0.1 0.2-0.2 0.1-0.1 0.2-0.3 0-0.1 0.1-0.2 0-0.2 0-0.3-0.1-0.2-0.1-0.3-0.1-0.2-0.2-0.3-0.1-0.1-0.2-0.2-0.1-0.1-0.3-0.2-0.1-0.1-0.2-0.2-0.2-0.1-0.3-0.1-1.1-0.6-2.3-1.1-1.2-0.4-2.4-0.7-1.2-0.3-2.5-0.4-1.2-0.2-2.5-0.1z"/><path class="d" d="m115.5 31.8c0.8-2.5 1.7-4.8 2.5-7.1 0.1-0.5 0.3-0.7 0.9-0.7q0.2 0 0.4 0 0.2 0 0.4 0 0.2 0 0.5 0 0.2 0 0.4 0c0.6 0 0.7 0.1 0.5 0.7-1.2 2.9-2.3 5.8-3.4 8.8q-0.2 0.5-0.4 0.9-0.1 0.5-0.3 0.9-0.2 0.5-0.4 0.9-0.2 0.5-0.5 0.9-0.4 0.7-1.1 1.2-0.7 0.5-1.5 0.7-0.8 0.2-1.7 0-0.8-0.1-1.5-0.6-0.1 0-0.1-0.1-0.1-0.1-0.1-0.1 0-0.1 0-0.2 0-0.1 0.1-0.2 0.3-0.6 0.6-1.4c0.1-0.3 0.3-0.4 0.7-0.2q0.1 0 0.2 0.1 0.2 0 0.3 0.1 0.1 0 0.2 0 0.1 0 0.3 0.1 0.3 0 0.6-0.1 0.3-0.1 0.5-0.4 0.2-0.2 0.2-0.6 0.1-0.3-0.1-0.6c-1-2.6-2.1-5.2-3.2-7.8q0-0.1-0.1-0.2-0.1-0.1-0.2-0.1-0.1-0.1-0.2-0.1-0.1-0.1-0.2 0c-1.9 0-1.9 0-1.9 1.8 0 2.2 0 4.4 0.1 6.5 0 0.5-0.2 0.7-0.7 0.7q-0.2 0-0.4-0.1-0.2 0-0.4 0-0.1 0-0.3 0-0.2 0.1-0.4 0.1c-0.6 0-0.8-0.2-0.8-0.8 0-2.5 0-5.1 0-7.6 0-0.5-0.1-0.7-0.7-0.6-0.6 0.1-0.8-0.2-0.7-0.8q0-0.1 0-0.3 0-0.1 0-0.3 0-0.2 0-0.3 0-0.2 0-0.3-0.1-0.7 0.6-0.6c0.6 0.1 0.8-0.1 0.8-0.8 0-2.6 1.7-4 4.5-3.6 1.4 0.2 1.4 0.2 1.4 1.7 0 1.1 0 1.1-1.1 0.9-1.2-0.2-1.8 0.2-1.9 1.2 0 0.4 0.1 0.6 0.5 0.6 1.2 0 2.3 0 3.4 0q0.1 0 0.3 0 0.1 0 0.3 0.1 0.1 0.1 0.2 0.2 0 0.1 0.1 0.3 1.3 3.4 2.6 6.9c0 0.1 0.1 0.1 0.2 0.3z"/><path fill-rule="evenodd" class="d" d="m68.6 34.3c0 1.3 0 2.6 0 3.8 0.1 0.7-0.2 0.9-0.8 0.8q-0.2 0-0.4 0-0.2 0-0.3 0-0.2 0-0.4 0-0.2 0-0.4 0c-0.5 0.1-0.7-0.1-0.7-0.7q0-4.3 0-8.6c0-1.6 0-3.2 0-4.9 0-0.6 0.2-0.8 0.8-0.7q0.2 0 0.4 0 0.1 0 0.3 0 0.2 0 0.4 0 0.2 0 0.4 0c0.5-0.1 0.8 0.1 0.7 0.7q0 0.1 0 0.1 0 0.1 0 0.1 0 0.1 0 0.1 0 0.1 0 0.2c0.3 0.1 0.3-0.1 0.4-0.2q0.8-0.7 1.9-1 1.1-0.4 2.2-0.2 1.1 0.2 2 0.8 0.9 0.6 1.5 1.6 0.5 0.8 0.8 1.7 0.3 0.9 0.3 1.9 0 0.9-0.3 1.9-0.3 0.9-0.8 1.7-0.6 1-1.6 1.6-1 0.6-2.2 0.8-1.1 0.1-2.2-0.3-1.2-0.4-2-1.2zm6-4.5q0-0.6-0.1-1.2-0.2-0.6-0.6-1-0.4-0.5-0.9-0.8-0.5-0.3-1.1-0.4-0.6 0-1.1 0.1-0.5 0.2-1 0.5-0.4 0.3-0.7 0.8-0.3 0.4-0.4 1-0.2 0.6-0.2 1.2 0 0.6 0.3 1.1 0.2 0.6 0.6 1 0.4 0.5 0.9 0.8c2.1 1 4.3-0.6 4.3-3.1z"/><path class="d" d="m58.6 20.1q0.7 0 1.4 0.1 0.7 0.1 1.3 0.3 0.7 0.2 1.3 0.5 0.6 0.3 1.2 0.7c0.4 0.3 0.5 0.6 0.2 1q-0.2 0.2-0.3 0.3-0.1 0.2-0.2 0.3-0.1 0.2-0.3 0.4-0.1 0.1-0.2 0.3c-0.2 0.4-0.4 0.4-0.8 0.1q-0.3-0.2-0.7-0.4-0.4-0.2-0.7-0.4-0.4-0.2-0.9-0.3-0.4-0.1-0.8-0.1-0.2-0.1-0.4-0.1-0.2 0-0.5 0.1-0.2 0-0.4 0-0.2 0.1-0.4 0.2-0.2 0-0.4 0.2-0.2 0.1-0.3 0.3-0.1 0.2-0.2 0.4-0.1 0.2-0.1 0.4 0 0.2 0.1 0.4 0 0.2 0.1 0.4 0.1 0.2 0.3 0.3 0.2 0.2 0.4 0.2 0.3 0.2 0.6 0.3 0.3 0.1 0.6 0.2 0.3 0.1 0.6 0.2 0.3 0.1 0.6 0.2 0.4 0 0.7 0.1 0.4 0.1 0.7 0.3 0.3 0.1 0.7 0.2 0.3 0.1 0.6 0.3 0.5 0.2 1 0.6 0.4 0.4 0.7 0.8 0.3 0.5 0.5 1.1 0.1 0.5 0.1 1.1 0 0.6-0.1 1.2-0.1 0.6-0.4 1.1-0.3 0.5-0.8 0.9-0.4 0.5-1 0.7-0.7 0.4-1.5 0.6-0.8 0.2-1.7 0.2-0.8 0.1-1.6-0.1-0.8-0.1-1.6-0.4-0.4-0.2-0.7-0.3-0.4-0.2-0.7-0.4-0.4-0.2-0.7-0.4-0.3-0.2-0.7-0.5c-0.4-0.3-0.5-0.5-0.1-1 0.5-0.4 0.8-1.2 1.4-1.4 0.5-0.2 1 0.6 1.5 0.9q0.5 0.3 1 0.5 0.4 0.2 0.9 0.3 0.5 0.1 1 0.1 0.6 0 1.1-0.1c1.2-0.2 1.8-1 1.6-2q-0.1-0.2-0.2-0.4-0.1-0.1-0.2-0.3-0.2-0.1-0.3-0.2-0.2-0.1-0.4-0.2-0.3-0.1-0.5-0.2-0.3-0.1-0.6-0.1-0.3-0.1-0.6-0.2-0.3-0.1-0.6-0.1-0.3-0.1-0.6-0.2-0.3-0.1-0.6-0.2-0.3-0.1-0.6-0.2-0.3-0.1-0.6-0.2-0.5-0.2-0.9-0.6-0.4-0.3-0.8-0.7-0.3-0.4-0.5-0.9-0.2-0.6-0.2-1.1-0.1-0.6 0-1.2 0.1-0.6 0.4-1.2 0.2-0.5 0.6-1 0.4-0.5 1-0.8 0.3-0.2 0.7-0.4 0.4-0.2 0.8-0.3 0.4-0.1 0.9-0.1 0.4-0.1 0.8-0.1z"/><path fill-rule="evenodd" class="d" d="m84.5 35.8q-1.2 0-2.4-0.4-1.1-0.5-2-1.3-0.8-0.9-1.3-2-0.4-1.1-0.4-2.3 0-1.2 0.4-2.4 0.5-1.1 1.4-1.9 0.9-0.9 2-1.3 1.1-0.5 2.3-0.5 1.3 0 2.4 0.5 1.1 0.4 2 1.3 0.9 0.9 1.3 2 0.5 1.1 0.5 2.3 0 1.3-0.5 2.4-0.5 1.1-1.4 1.9-0.8 0.9-2 1.3-1.1 0.5-2.3 0.4zm0-9.4q-0.6 0-1.2 0.3-0.6 0.2-1.1 0.7-0.4 0.5-0.7 1.1-0.2 0.6-0.2 1.2 0 0.7 0.2 1.3 0.3 0.7 0.7 1.1 0.5 0.5 1.1 0.8 0.6 0.3 1.3 0.3 0.6 0 1.2-0.3 0.6-0.2 1.1-0.7 0.4-0.5 0.7-1.1 0.2-0.6 0.2-1.3 0-0.6-0.3-1.2-0.2-0.7-0.6-1.1-0.5-0.5-1.1-0.8-0.6-0.3-1.3-0.3z"/><path class="d" d="m92.3 29.9q0-1.4 0-2.8c0-0.4-0.1-0.5-0.5-0.5-0.9 0-0.9-0.1-0.9-1v-0.5c0-1 0-1 1-1.1 0.3 0 0.4-0.1 0.4-0.4 0-0.7 0-1.4 0-2.1 0-0.5 0.2-0.6 0.6-0.6q0.3 0 0.5 0 0.2 0 0.4 0 0.2 0 0.4 0 0.2 0 0.4 0c0.6-0.1 0.7 0.2 0.7 0.7 0 0.6 0 1.2 0 1.7-0.1 0.5 0.1 0.7 0.6 0.7 0.6-0.1 1.2 0 1.9 0 0.4-0.1 0.5 0.1 0.5 0.5q0 0.8 0 1.6c0 0.4-0.1 0.5-0.5 0.5-0.7 0-1.3 0-2 0-0.3-0.1-0.5 0-0.5 0.4 0 1.6 0 3.2 0 4.8 0 1 0.5 1.3 1.4 1.2q0.1 0 0.1 0 0.1 0 0.2 0 0.1 0 0.1 0 0.1 0 0.2 0c1-0.3 1-0.3 1 0.8v0.1c0 1.3-0.2 1.6-1.5 1.7q-0.2 0.1-0.4 0.1-0.1 0-0.3 0-0.2 0-0.3 0-0.2 0-0.4 0-0.6 0.1-1.2-0.2-0.6-0.2-1-0.6-0.5-0.5-0.7-1.1-0.2-0.6-0.2-1.2c0-0.9 0-1.8 0-2.7z"/><path class="d" d="m102.4 29.8q0 2.6 0 5.2c0 0.4-0.1 0.6-0.6 0.6q-0.9-0.1-1.8 0c-0.4 0-0.6-0.1-0.6-0.6q0.1-5.2 0-10.5c0-0.4 0.2-0.5 0.6-0.5q0.9 0 1.8 0c0.5 0 0.6 0.2 0.6 0.6q0 2.6 0 5.2z"/><path class="e" d="m100.9 18.9q0.4 0 0.7 0.1 0.4 0.2 0.6 0.4 0.3 0.3 0.4 0.6 0.2 0.4 0.2 0.8 0 0.3-0.2 0.7-0.1 0.3-0.4 0.6-0.2 0.2-0.6 0.4-0.3 0.1-0.7 0.1-0.4 0-0.7-0.1-0.3-0.2-0.6-0.4-0.3-0.3-0.4-0.6-0.1-0.3-0.1-0.7 0-0.4 0.1-0.7 0.1-0.4 0.4-0.6 0.3-0.3 0.6-0.5 0.3-0.1 0.7-0.1z"/><path fill-rule="evenodd" class="f" d="m71.4 13.3h-1.6c-0.2 0-0.3 0.1-0.2 0.3q0 0.4 0.2 0.7 0.2 0.3 0.6 0.5 0.3 0.2 0.7 0.2 0.4-0.1 0.7-0.2 0.1-0.1 0.1-0.1 0.1-0.1 0.1-0.1 0.1-0.1 0.1-0.1 0.1-0.1 0.1-0.1 0-0.1 0-0.1 0.1-0.1 0.1-0.1 0.1 0 0.1 0 0.1 0 0.1 0h0.4c0.2 0 0.3 0 0.2 0.3q-0.1 0.2-0.3 0.4-0.1 0.2-0.3 0.3-0.2 0.2-0.5 0.3-0.2 0.1-0.4 0.1-0.4 0.1-0.7 0.1-0.4 0-0.8-0.1-0.3-0.2-0.6-0.4-0.2-0.3-0.4-0.6-0.2-0.3-0.3-0.7-0.1-0.4-0.1-0.8 0-0.4 0.1-0.8 0.1-0.4 0.3-0.7 0.2-0.3 0.5-0.5 0.2-0.3 0.6-0.4 0.3-0.1 0.6-0.1 0.4-0.1 0.7 0 0.3 0.1 0.6 0.3 0.3 0.1 0.5 0.4 0.2 0.2 0.4 0.5 0.1 0.3 0.1 0.7 0.1 0.3 0.1 0.6c0 0.2-0.1 0.3-0.3 0.3q-0.8-0.1-1.5-0.1zm-0.5-0.6h1.2c0.2 0 0.2 0 0.2-0.2q0-0.1 0-0.2-0.1-0.1-0.1-0.2 0-0.1-0.1-0.2-0.1-0.1-0.1-0.2-0.2-0.1-0.3-0.2-0.2-0.1-0.3-0.2-0.2 0-0.4 0-0.2 0-0.4 0.1-0.2 0-0.3 0.1-0.2 0.1-0.3 0.3-0.2 0.1-0.2 0.3-0.1 0.2-0.1 0.4c-0.1 0.2 0 0.2 0.1 0.2z"/><path fill-rule="evenodd" class="f" d="m86.5 13.3q0 0.3-0.1 0.5 0 0.3-0.2 0.6-0.1 0.3-0.3 0.5-0.2 0.2-0.4 0.4-0.5 0.3-1.1 0.4-0.6 0-1.2-0.2-0.5-0.3-0.9-0.8-0.3-0.5-0.4-1.1 0-0.2 0-0.4-0.1-0.2 0-0.4 0-0.2 0-0.4 0.1-0.3 0.2-0.5 0.1-0.3 0.3-0.6 0.2-0.2 0.5-0.4 0.3-0.2 0.7-0.3 0.3-0.1 0.7 0c1.4 0 2.2 1 2.2 2.7zm-3.8-0.2q0 0.1 0 0.2 0 0 0 0.1 0 0.1 0 0.2 0 0 0 0.1 0.1 0.2 0.2 0.4 0.1 0.2 0.2 0.4 0.2 0.2 0.4 0.3 0.2 0.1 0.5 0.1 0.2 0.1 0.5 0 0.2-0.1 0.4-0.2 0.2-0.1 0.4-0.3 0.1-0.2 0.2-0.5 0-0.2 0.1-0.4 0-0.2 0-0.4 0-0.2 0-0.4-0.1-0.2-0.1-0.4-0.1-0.2-0.2-0.4-0.1-0.2-0.3-0.3-0.2-0.2-0.4-0.2-0.2-0.1-0.5-0.1-0.2 0-0.4 0.1-0.2 0-0.4 0.2-0.2 0.1-0.3 0.3-0.2 0.2-0.2 0.4 0 0.1-0.1 0.2 0 0.1 0 0.2 0 0.1 0 0.2 0 0.1 0 0.2z"/><path class="f" d="m88.4 11.4q0.2-0.3 0.4-0.5 0.2-0.2 0.5-0.3 0.3-0.1 0.6-0.1 0.3 0 0.5 0.1 0.3 0 0.6 0.2 0.2 0.1 0.4 0.4 0.2 0.2 0.3 0.5 0 0.2 0 0.5c0 1.1 0 2.2 0 3.2 0 0.1 0 0.2-0.2 0.2-0.6 0-0.6 0-0.6-0.6v-2.4q0-0.1 0-0.2 0 0 0-0.1-0.1 0-0.1-0.1 0-0.1 0-0.1 0-0.2-0.1-0.4-0.1-0.1-0.3-0.2-0.1-0.1-0.3-0.2-0.1 0-0.3 0-0.2-0.1-0.4 0-0.2 0-0.4 0.2-0.2 0.1-0.3 0.2-0.1 0.2-0.2 0.4 0 0.1 0 0.2-0.1 0-0.1 0.1 0 0.1 0 0.2 0 0.1 0 0.1v2.6c0 0.2-0.1 0.3-0.2 0.3-0.7 0-0.7 0-0.7-0.6v-4.2c0-0.2 0.1-0.2 0.3-0.2 0.5 0 0.5 0 0.5 0.5q0.1 0 0.1 0.1 0 0 0 0 0 0.1 0 0.1 0 0 0 0.1z"/><path class="f" d="m75.1 11.5q0.1-0.2 0.2-0.3 0.1-0.2 0.2-0.3 0.2-0.1 0.3-0.2 0.2 0 0.3-0.1 0.2 0 0.3 0 0.1 0 0.3 0 0.1 0 0.2 0 0.1 0 0.3 0 0.2 0.1 0.5 0.3 0.2 0.1 0.4 0.3 0.2 0.2 0.2 0.5 0.1 0.3 0.1 0.6c0 1 0 2.1 0 3.2 0 0.1 0 0.1-0.2 0.2-0.6 0-0.6 0-0.6-0.7v-2.4q0-0.1 0-0.1 0-0.1 0-0.2-0.1 0-0.1-0.1 0 0 0-0.1 0-0.2-0.1-0.3-0.1-0.1-0.2-0.2-0.1-0.1-0.2-0.2-0.2 0-0.3 0-0.2-0.1-0.4-0.1-0.2 0.1-0.4 0.1-0.2 0.1-0.3 0.2-0.2 0.2-0.3 0.3 0 0.1-0.1 0.2 0 0.2 0 0.3-0.1 0.1-0.1 0.2 0 0.1 0 0.3v2.5c0 0.2 0 0.3-0.2 0.3-0.6 0-0.6 0-0.6-0.7v-4.1c0-0.2 0-0.3 0.2-0.3 0.6 0 0.6 0 0.6 0.6z"/><path class="f" d="m61.2 14.2h0.2q0.2 0 0.2 0.1 0 0.1 0.1 0.2 0.1 0.1 0.2 0.2 0 0.1 0.1 0.1 0.2 0.1 0.3 0.1 0.1 0 0.2 0.1 0.2 0 0.3 0 0.2 0 0.3-0.1 0.1 0 0.3 0 0.1-0.1 0.1-0.1 0.1-0.1 0.2-0.2 0.1-0.1 0.1-0.2 0-0.1 0-0.2 0-0.1 0-0.1 0-0.1-0.1-0.2-0.1-0.1-0.2-0.1 0-0.1-0.1-0.1c-0.4-0.1-0.8-0.2-1.2-0.3q-0.1-0.1-0.2-0.1 0 0-0.1 0-0.1-0.1-0.2-0.1 0 0-0.1 0-0.3-0.2-0.5-0.5-0.2-0.3-0.2-0.6-0.1-0.3 0.1-0.6 0.1-0.4 0.4-0.5 0.3-0.2 0.6-0.3 0.4-0.1 0.7-0.1 0.4 0 0.7 0.1 0.3 0.1 0.6 0.3 0.1 0.1 0.2 0.2 0.1 0 0.2 0.2 0 0.1 0.1 0.2 0 0.1 0.1 0.2c0 0.2 0 0.2-0.2 0.2h-0.2c-0.3 0-0.5 0-0.5-0.3-0.1-0.1-0.2-0.2-0.4-0.3q-0.1-0.1-0.3-0.1-0.1 0-0.3 0-0.1 0-0.3 0-0.2 0-0.3 0.1-0.1 0-0.2 0.1-0.1 0.1-0.1 0.1-0.1 0.1-0.1 0.2 0 0.1 0 0.2 0 0.1 0 0.2 0 0.1 0.1 0.1 0.1 0.1 0.1 0.1 0.1 0.1 0.2 0.1 0.1 0.1 0.3 0.1 0.1 0.1 0.2 0.1 0.2 0 0.3 0.1 0.1 0 0.3 0 0.1 0.1 0.2 0.1 0 0 0.1 0 0.1 0.1 0.2 0.1 0.1 0 0.2 0.1 0.3 0.1 0.5 0.3 0.2 0.3 0.3 0.6 0 0.4-0.1 0.7-0.1 0.3-0.4 0.5-0.2 0.1-0.4 0.2-0.2 0.1-0.4 0.2-0.2 0.1-0.5 0.1-0.2 0-0.4 0-0.2 0-0.3-0.1-0.2 0-0.3-0.1-0.2 0-0.3-0.1-0.2-0.1-0.3-0.1-0.1-0.1-0.2-0.2-0.1-0.1-0.1-0.2-0.1-0.1-0.2-0.2 0-0.1 0-0.3c-0.1-0.2-0.1-0.2 0.1-0.2z"/><path class="f" d="m53.3 12.1v-3.2c0-0.2 0.1-0.2 0.3-0.2 0.6 0 0.6 0 0.6 0.6v5.3c0 0.2 0.1 0.3 0.2 0.3h2.9c0.2 0 0.2 0 0.2 0.2 0 0.6 0 0.6-0.5 0.6h-3.4c-0.2 0-0.3-0.1-0.3-0.3z"/><path class="f" d="m66.1 12.9c0-0.4 0-0.9 0-1.3 0-0.2-0.1-0.3-0.3-0.3h-0.1c-0.4 0-0.3 0.1-0.3-0.3 0-0.4 0-0.4 0.3-0.4 0.4 0 0.4 0 0.4-0.4v-0.7c0-0.1 0.1-0.1 0.2-0.1 0.6 0 0.6 0 0.6 0.6 0 0.6 0 0.6 0.6 0.6 0.4 0 0.4 0 0.4 0.4 0 0.2 0 0.3-0.3 0.3-0.2 0-0.5-0.1-0.6 0-0.2 0.2-0.1 0.5-0.1 0.7v2.2c0 0.6 0.2 0.7 0.7 0.7 0.3 0 0.3 0 0.3 0.3 0 0.4 0 0.4-0.5 0.4-1 0-1.3-0.3-1.3-1.3q0-0.7 0-1.4z"/><path class="f" d="m58.7 13.1v-2.3c0-0.2 0-0.2 0.2-0.2 0.6 0 0.6 0 0.6 0.6v4.1c0 0.2 0 0.3-0.2 0.3-0.6 0-0.6 0-0.6-0.6z"/><path class="f" d="m59.1 9.8q-0.1 0-0.2-0.1-0.1 0-0.2-0.1 0-0.1-0.1-0.1 0-0.1 0-0.2 0-0.1 0-0.2 0.1-0.1 0.1-0.2 0.1-0.1 0.2-0.1 0.1-0.1 0.2-0.1 0.1 0 0.2 0.1 0.1 0 0.2 0.1 0.1 0 0.1 0.1 0 0.1 0 0.2 0 0.1 0 0.2 0 0.1-0.1 0.2-0.1 0.1-0.2 0.1-0.1 0.1-0.2 0.1z"/></g></svg>